<svg width="620" height="300" viewBox="0 0 620 300" fill="none" xmlns="http://www.w3.org/2000/svg">
<path d="M354.684 70.9297L354.478 80.4953C354.79 121.443 370.489 173.396 423.675 230.008C440.281 247.684 439.64 253.645 455.035 252.245C470.43 250.846 488.105 252.815 475.561 255.666C458.456 259.554 414.065 260.798 396.307 260.798C374.09 260.798 359.889 258.025 353.924 256.556C351.982 256.078 350.723 254.303 350.766 252.304L354.478 80.4953C354.453 77.236 354.525 74.0464 354.684 70.9297Z" fill="#F4F6FA"/>
<g style="mix-blend-mode:multiply">
<path d="M444.771 48.1228C444.771 42.2027 449.621 39 454.975 39C460.328 39 464.157 43.9132 464.157 49.8333V63.5429V79.0263C464.157 84.9464 460.328 91.4561 454.975 91.4561C449.621 91.4561 444.771 86.5429 444.771 80.6228V48.1228Z" fill="#F4F6FA"/>
</g>
<path d="M425.955 184.966C404.289 188.387 399.727 183.826 383.192 174.133C389.464 182.115 403.491 200.589 409.42 210.624C415.35 220.659 437.549 241.984 447.622 251.106L475.561 250.536C459.026 250.536 439.64 241.984 429.377 226.589C421.166 214.273 423.675 193.709 425.955 184.966Z" fill="#E9EDF5"/>
<path fill-rule="evenodd" clip-rule="evenodd" d="M481.552 131.075H435.076C434.664 131.075 434.313 130.778 434.243 130.372C434.174 129.967 434.407 129.57 434.795 129.433C436.387 128.871 437.859 128.192 438.753 127.522C439.211 127.178 439.413 126.913 439.473 126.757C439.485 126.727 439.489 126.707 439.49 126.695C439.491 126.684 439.49 126.678 439.489 126.675C439.488 126.671 439.478 126.623 439.394 126.534C439.204 126.334 438.756 126.049 437.846 125.755C436.958 125.469 435.717 125.201 434.043 124.973C430.696 124.518 425.71 124.233 418.541 124.233C409.533 124.233 403.341 123.484 399.524 122.325C397.628 121.75 396.223 121.045 395.367 120.201C394.93 119.77 394.611 119.279 394.47 118.727C394.326 118.168 394.382 117.609 394.594 117.084C395.002 116.075 395.978 115.207 397.227 114.474C398.503 113.725 400.185 113.046 402.193 112.472C406.212 111.324 411.638 110.569 417.971 110.569C424.249 110.569 429.778 110.64 434.536 110.711C435.327 110.723 436.097 110.735 436.845 110.747C440.6 110.804 443.813 110.854 446.48 110.854C449.69 110.854 452.061 110.782 453.621 110.576C454.318 110.484 454.795 110.372 455.096 110.256C454.77 110.095 454.251 109.933 453.525 109.783C452.038 109.475 449.915 109.264 447.429 109.122C442.469 108.838 436.223 108.838 431.085 108.838C428.505 108.838 426.622 108.559 425.57 108.038C425.073 107.792 424.466 107.339 424.437 106.581C424.41 105.854 424.943 105.336 425.4 105.018C426.381 104.336 428.196 103.742 430.701 103.311C433.245 102.874 436.608 102.586 440.778 102.586C448.951 102.586 454.843 100.892 458.686 97.5877C462.489 94.3186 464.435 89.3433 464.45 82.4158C464.448 82.3891 464.446 82.3623 464.446 82.335V66.3701C464.446 65.9033 464.825 65.5249 465.291 65.5249H480.116C481.842 65.5249 483.242 66.9244 483.242 68.6508V129.384H603.278C603.744 129.384 604.123 129.763 604.123 130.23C604.123 130.696 603.744 131.075 603.278 131.075H483.242V248.826C483.242 250.553 481.829 251.963 480.091 251.931C464.843 251.649 453.908 248.561 445.808 243.952C437.703 239.34 432.497 233.239 428.656 227.034C424.856 220.895 422.834 212.908 422.401 205.184C422.007 198.156 422.923 191.25 425.091 186.067C412.836 187.995 399.585 186.593 388.432 179.405C387.868 179.041 387.321 178.68 386.791 178.32C399.645 199.029 427.792 233.976 447.03 250.465C447.298 250.695 447.395 251.068 447.272 251.4C447.15 251.732 446.833 251.952 446.48 251.952H356.962C355.236 251.952 353.836 250.552 353.836 248.826V137.642C353.836 137.229 354.134 136.877 354.541 136.808C354.948 136.74 355.345 136.976 355.48 137.365C356.282 139.682 358.478 142.956 360.863 145.551C362.049 146.842 363.245 147.924 364.29 148.618C364.813 148.965 365.27 149.196 365.649 149.317C366.033 149.439 366.264 149.425 366.388 149.384C366.499 149.347 366.586 149.289 366.66 149.192C366.737 149.09 366.81 148.929 366.86 148.668C366.965 148.117 366.928 147.292 366.723 146.157C366.317 143.903 365.324 140.787 364.071 136.98C364.021 136.828 363.971 136.676 363.92 136.523L363.669 135.762L363.668 135.758C361.222 128.348 358.057 118.754 356.695 108.676C356.221 105.167 355.82 101.598 355.483 98.083C353.02 98.5753 350.725 99.1082 348.634 99.6848C340.317 101.979 334.892 102.075 331.14 100.611C327.329 99.1234 325.427 96.1024 323.971 92.7183C323.472 91.5581 323.02 90.3482 322.562 89.1252C320.335 83.1702 317.96 76.8359 309.327 73.4282C295.385 67.9247 279.275 66.3191 260.619 67.0376C241.96 67.7562 220.819 70.7956 196.827 74.5392C193.205 75.1044 189.519 75.6855 185.767 76.277L185.763 76.2776L185.76 76.2781L185.759 76.2783C139.832 83.5183 84.1061 92.303 16.5678 92.303C16.1011 92.303 15.7227 91.9246 15.7227 91.4578C15.7227 90.991 16.1011 90.6126 16.5678 90.6126C83.9683 90.6126 139.577 81.847 185.506 74.6069C189.257 74.0156 192.944 73.4344 196.567 72.8691C220.549 69.1269 241.783 66.0714 260.554 65.3485C279.327 64.6255 295.7 66.2317 309.948 71.8559C319.327 75.5581 321.961 82.6391 324.186 88.6211L324.187 88.625L324.191 88.6352C324.636 89.8303 325.062 90.9777 325.524 92.0504C326.919 95.2944 328.58 97.7971 331.754 99.036C334.986 100.297 339.967 100.322 348.185 98.0553C350.366 97.4537 352.76 96.9003 355.326 96.3912C354.31 85.1758 353.931 74.6905 353.853 68.6612C353.83 66.9237 355.239 65.5249 356.962 65.5249H443.924V50.4052C443.924 47.4398 444.677 44.676 446.25 42.6325C447.843 40.5628 450.231 39.2969 453.322 39.2969C457.688 39.2969 461.579 42.4395 461.579 46.9841V76.6332C461.579 80.249 458.648 83.1802 455.032 83.1802C451.417 83.1802 448.485 80.249 448.485 76.6332V67.2153H445.614V81.1946C445.614 86.304 449.683 90.4631 454.757 90.6087L454.759 90.6087L454.826 90.6096L455.031 90.6125L455.034 90.6125L455.038 90.6126L455.039 90.6126L455.041 90.6126L455.042 90.6126L455.045 90.6127C455.508 90.6199 455.881 90.9996 455.877 91.4643C455.874 91.9285 455.497 92.303 455.032 92.303C454.963 92.303 454.894 92.3023 454.825 92.3011L454.774 92.3L454.721 92.2987C454.583 92.2968 454.397 92.2945 454.167 92.2918C453.607 92.2854 452.782 92.277 451.721 92.2694C449.598 92.2541 446.53 92.2419 442.751 92.254C435.192 92.2783 424.791 92.4 413.419 92.7896C394.417 93.4407 372.776 94.8383 357.151 97.7607C357.489 101.308 357.892 104.911 358.37 108.45C359.71 118.366 362.831 127.827 365.282 135.256L365.34 135.432C365.454 135.776 365.566 136.116 365.676 136.451C366.918 140.222 367.955 143.462 368.387 145.858C368.601 147.048 368.684 148.122 368.52 148.984C368.348 149.886 367.872 150.671 366.922 150.988C366.333 151.184 365.709 151.11 365.136 150.928C364.557 150.743 363.954 150.424 363.355 150.026C362.155 149.229 360.855 148.041 359.618 146.695C358.112 145.055 356.646 143.124 355.527 141.274V248.826C355.527 249.619 356.169 250.262 356.962 250.262H444.226C423.799 232.117 394.746 195.473 383.309 175.814C378.528 172.15 375.497 168.793 373.74 166.028C372.854 164.634 372.282 163.374 371.98 162.29C371.682 161.221 371.626 160.251 371.867 159.48C372.121 158.663 372.729 158.054 373.618 157.966C374.418 157.886 375.25 158.253 376.009 158.849C377.546 160.056 379.217 162.532 380.566 166.445C381.281 168.52 382.662 171.318 384.602 174.675C386.019 175.75 387.596 176.855 389.348 177.984C400.524 185.187 413.974 186.389 426.372 184.135C426.687 184.078 427.008 184.203 427.2 184.459C427.392 184.715 427.423 185.058 427.279 185.344C424.801 190.301 423.666 197.553 424.089 205.089C424.511 212.617 426.481 220.309 430.093 226.144C433.829 232.179 438.847 238.046 446.644 242.483C454.445 246.922 465.088 249.963 480.122 250.241C480.903 250.255 481.552 249.618 481.552 248.826V131.075ZM381.102 171.807C378.281 169.295 376.376 167.025 375.167 165.122C374.347 163.831 373.856 162.724 373.608 161.836C373.356 160.932 373.374 160.323 373.48 159.983C373.529 159.827 373.586 159.75 373.63 159.71C373.672 159.674 373.72 159.654 373.785 159.648C373.966 159.63 374.368 159.71 374.965 160.178C376.14 161.101 377.67 163.23 378.968 166.996C379.439 168.361 380.163 169.981 381.102 171.807ZM445.614 65.5249H449.331C449.797 65.5249 450.176 65.9033 450.176 66.3701V76.6332C450.176 79.3155 452.35 81.4898 455.032 81.4898C457.715 81.4898 459.889 79.3155 459.889 76.6332V46.9841C459.889 43.5449 456.936 40.9872 453.322 40.9872C450.744 40.9872 448.856 42.0187 447.59 43.6636C446.303 45.3346 445.614 47.7025 445.614 50.4052V65.5249ZM443.924 67.2153H356.962C356.167 67.2153 355.533 67.8573 355.543 68.6392C355.621 74.6079 355.995 84.9739 356.994 96.0708C372.766 93.1388 394.441 91.7485 413.361 91.1003C424.755 90.7098 435.175 90.588 442.746 90.5637C445.162 90.5559 447.288 90.5581 449.063 90.5647C445.974 88.5924 443.924 85.133 443.924 81.1946V67.2153ZM481.552 129.384V68.6508C481.552 67.858 480.909 67.2153 480.116 67.2153H466.137V82.2529C466.138 82.2684 466.139 82.2841 466.14 82.2998C466.14 82.3115 466.141 82.3232 466.141 82.335C466.141 89.6196 464.096 95.1666 459.788 98.8695C455.507 102.55 449.14 104.277 440.778 104.277C436.68 104.277 433.415 104.559 430.988 104.977C428.522 105.401 427.023 105.948 426.365 106.406C426.321 106.436 426.284 106.464 426.254 106.489C426.274 106.499 426.295 106.511 426.319 106.523C426.655 106.689 427.207 106.846 427.998 106.96C428.788 107.075 429.811 107.148 431.085 107.148H431.1C436.222 107.148 442.513 107.148 447.526 107.434C450.029 107.577 452.254 107.794 453.867 108.127C454.666 108.293 455.374 108.498 455.901 108.769C456.37 109.009 457.018 109.471 457.018 110.274C457.018 111.065 456.417 111.514 455.913 111.745C455.387 111.987 454.674 112.142 453.842 112.252C452.159 112.474 449.684 112.544 446.48 112.544C443.798 112.544 440.571 112.494 436.817 112.437L436.639 112.434C435.948 112.423 435.238 112.412 434.511 112.402C429.755 112.33 424.236 112.259 417.971 112.259C411.76 112.259 406.495 113.001 402.657 114.097C400.736 114.646 399.197 115.277 398.083 115.931C396.942 116.601 396.359 117.229 396.161 117.718C396.071 117.941 396.062 118.13 396.107 118.307C396.155 118.493 396.279 118.726 396.553 118.997C397.12 119.556 398.214 120.161 400.015 120.708C403.593 121.794 409.589 122.542 418.541 122.542C425.741 122.542 430.814 122.828 434.271 123.298C435.998 123.534 437.346 123.818 438.365 124.147C439.361 124.468 440.137 124.86 440.622 125.372C440.875 125.64 441.065 125.957 441.143 126.324C441.221 126.693 441.173 127.049 441.049 127.368C440.816 127.97 440.306 128.47 439.767 128.875C439.535 129.049 439.278 129.219 439.002 129.384H481.552Z" fill="#95979F"/>
</svg>
