<svg width="620" height="300" viewBox="0 0 620 300" fill="none" xmlns="http://www.w3.org/2000/svg">
<path d="M414.966 160.633C432.694 143.317 482.44 79.0672 492.244 64.9403C499.517 54.4603 527.701 16.183 526.792 43.5234C526.141 63.0856 517.7 95.4726 475.88 133.747C447.108 160.078 388.849 189.924 382.238 232.633C378.147 259.063 375.871 262.252 308.14 262.252C291.861 262.252 276.122 249.149 261.319 249.493C248.396 249.793 240.863 266.496 226.317 266.809C214.799 267.057 231.794 247.908 220.407 246.759C207.284 245.435 193.016 264.813 159.495 260.885C137.263 258.28 163.085 249.126 201.772 243.683C223.994 240.557 250.461 238.655 274.504 239.924C326.325 242.658 331.779 244.025 349.052 228.076C353.538 223.934 354.962 220.783 366.781 207.112C378.6 193.442 397.238 177.949 414.966 160.633Z" fill="#F4F6FA"/>
<path fill-rule="evenodd" clip-rule="evenodd" d="M514.442 54.8143L517.189 57.1432C518.275 58.0637 518.4 59.6923 517.467 60.767L403.159 192.478C402.232 193.545 400.614 193.659 399.546 192.732L396.743 190.296L514.442 54.8143ZM394.34 190.464L366.136 222.93C366.066 223.01 365.956 223.045 365.851 223.019L362.505 222.183C361.925 222.038 361.309 222.163 360.83 222.522L345.275 234.18L384.645 189.865C386.818 187.419 390.557 187.177 393.027 189.323L394.34 190.464ZM66.7753 240.318L96.8182 239.067L96.823 239.067C123.977 239.067 141.102 234.883 167.005 226.647L177.484 223.315C184.199 221.18 189.081 229.717 183.819 234.412L172.682 244.348C169.372 247.301 173.131 252.519 176.987 250.303L214.634 228.666C219.071 226.116 224.242 230.593 222.339 235.347L221.629 237.12C221.256 238.052 221.943 239.067 222.95 239.067H338.486L350.426 212.492C350.78 211.705 351.602 211.236 352.46 211.331L353.531 211.45C353.8 211.48 353.954 211.156 353.765 210.967L351.128 208.332C350.385 207.589 350.348 206.397 351.044 205.61L370.61 183.486C371.057 182.98 371.034 182.214 370.556 181.736C369.436 180.618 369.386 178.819 370.442 177.64L395.936 149.168C397.445 147.483 400.008 147.27 401.775 148.682L405.191 151.413C406.273 152.278 407.848 152.126 408.743 151.069L483.455 62.9209L479.772 60.0582C479.652 59.9649 479.48 59.9822 479.38 60.0972L416.421 133.12C416.114 133.477 415.576 133.516 415.22 133.209C414.864 132.902 414.824 132.364 415.131 132.008L478.09 58.985C478.782 58.1828 479.981 58.0635 480.817 58.7134L484.558 61.6204L498.754 44.8705C500.277 43.0743 502.968 42.8528 504.764 44.3754L505.84 45.2873L515.284 33.5856C516.765 31.7498 519.457 31.4667 521.289 32.9536L524.992 35.9605C526.862 37.4783 527.102 40.2416 525.523 42.0594L515.56 53.5284L518.291 55.844C520.1 57.3777 520.308 60.0923 518.753 61.8834L404.446 193.594C402.902 195.373 400.207 195.562 398.429 194.017L395.626 191.582L367.422 224.047C366.931 224.612 366.164 224.853 365.438 224.672L362.093 223.836C362.009 223.815 361.921 223.833 361.852 223.884L339.547 240.6C339.4 240.711 339.221 240.771 339.037 240.771H222.95C220.74 240.771 219.226 238.539 220.048 236.487L220.757 234.714C222.058 231.464 218.523 228.395 215.483 230.143L177.835 251.78C172.218 255.009 166.699 247.403 171.548 243.077L182.685 233.141C186.571 229.674 182.971 223.358 178 224.938L167.521 228.27C141.483 236.549 124.181 240.77 96.8302 240.771H96.8269L66.7873 242.021L66.7825 242.021C58.7831 242.021 51.4171 242.411 45.8273 243.465C43.03 243.992 40.7226 244.677 39.0149 245.536C36.2257 246.938 35.184 250.405 35.743 253.591C36.301 256.771 38.418 259.491 41.7609 259.491H233.758C239.291 259.491 244.776 258.463 249.932 256.459L265.776 250.302C269.166 248.985 272.546 252.245 271.343 255.68L268.61 263.483C267.851 265.649 270.113 267.642 272.17 266.614L303.189 251.117C306.504 249.461 310.213 252.532 309.193 256.098L309.155 256.232C308.688 257.864 309.914 259.491 311.615 259.491H583.895C584.365 259.491 584.746 259.872 584.746 260.342C584.746 260.813 584.365 261.194 583.895 261.194H311.615C308.784 261.194 306.739 258.486 307.517 255.764L307.556 255.629C308.167 253.492 305.943 251.645 303.95 252.641L272.931 268.138C269.509 269.848 265.737 266.533 267.002 262.92L269.736 255.117C270.457 253.058 268.43 251.098 266.393 251.89L250.549 258.046C245.196 260.127 239.502 261.194 233.758 261.194H41.7609C37.2818 261.194 34.5575 257.79 33.8734 253.992C33.1908 250.202 34.5144 245.892 38.2498 244.014C40.1585 243.054 42.6402 242.332 45.5118 241.791C51.258 240.708 58.7476 240.318 66.7753 240.318ZM520.215 34.276C519.115 33.3829 517.498 33.5532 516.609 34.6553L507.139 46.3891L514.26 52.4268L524.237 40.9424C525.185 39.8517 525.041 38.1938 523.919 37.2828L520.215 34.276ZM506.069 47.7149L494.543 61.9964C492.171 64.9353 488.068 65.6698 484.862 63.8962L410.042 152.171C408.551 153.93 405.93 154.184 404.128 152.744L400.711 150.013C399.65 149.164 398.111 149.293 397.205 150.304L371.711 178.776C371.259 179.282 371.28 180.052 371.76 180.531C372.874 181.645 372.93 183.434 371.886 184.614L352.319 206.738C352.22 206.85 352.225 207.021 352.332 207.127L354.968 209.762C356.299 211.092 355.209 213.35 353.343 213.143L352.272 213.024C352.148 213.01 352.03 213.078 351.98 213.191L342.091 235.198L383.372 188.733C386.165 185.59 390.97 185.279 394.144 188.038L395.457 189.179L513.143 53.7127L506.069 47.7149ZM485.991 62.5632C488.436 63.7359 491.447 63.1201 493.218 60.9267L504.77 46.6131L503.663 45.6746C502.584 44.7602 500.968 44.8934 500.054 45.9717L485.991 62.5632Z" fill="#95979F"/>
</svg>
