<svg width="68" height="82" viewBox="0 0 68 82" fill="none" xmlns="http://www.w3.org/2000/svg">
<path fill-rule="evenodd" clip-rule="evenodd" d="M33.7085 0.600403L36.251 3.68773L33.7296 6.94307L31.1871 3.70873L33.7085 0.600403ZM33.7926 16.3518L28.7708 17.4229C28.7708 17.4229 26.0392 13.7055 25.598 12.5504C23.98 8.497 26.9427 6.81682 29.9054 6.79582L33.7506 11.2903L37.5538 6.77482C40.5164 6.75382 43.5001 8.41299 41.9242 12.4874C41.504 13.6215 38.8145 17.3809 38.8145 17.3809C38.1001 17.3809 33.7926 16.3518 33.7926 16.3518ZM47.4301 22.8002C49.9095 23.7243 52.0527 22.2331 54.1959 20.5319C51.6115 24.2283 49.3212 24.5854 48.1235 24.5854C48.2285 25.2784 48.2075 26.0555 47.9134 26.7696C46.8418 24.5434 45.413 24.4594 43.5219 24.6904C44.2993 23.0522 45.9593 22.7162 46.9048 22.7162L47.0939 22.6532C47.1254 22.6637 47.1569 22.6794 47.1885 22.6952C47.22 22.7109 47.2515 22.7267 47.283 22.7372C47.304 22.7372 47.3198 22.7424 47.3355 22.7477C47.3513 22.7529 47.3671 22.7582 47.3881 22.7582C47.3961 22.7662 47.4041 22.7712 47.411 22.7754C47.4221 22.7822 47.4301 22.7872 47.4301 22.8002ZM19.9693 26.8966C21.0199 24.6704 22.4487 24.5654 24.3398 24.7754C23.5413 23.1582 21.8814 22.8222 20.9359 22.8432L20.7468 22.7802C20.7153 22.7907 20.6838 22.8064 20.6523 22.8222L20.6523 22.8222L20.6523 22.8222L20.6522 22.8222L20.6522 22.8222L20.6522 22.8222L20.6522 22.8222L20.6522 22.8222L20.6522 22.8222L20.6521 22.8222C20.6206 22.838 20.5891 22.8537 20.5577 22.8642C20.533 22.8642 20.5084 22.8714 20.488 22.8774C20.4736 22.8816 20.4613 22.8852 20.4526 22.8852C20.4526 22.8852 20.4316 22.9062 20.4316 22.9272C17.9732 23.8723 15.809 22.4232 13.6447 20.722C16.2502 24.3764 18.5405 24.7124 19.7592 24.6914C19.6331 25.4055 19.6752 26.1826 19.9693 26.8966ZM33.4203 64.7011C31.0816 64.9533 24.4824 65.7935 23.2047 67.6829C23.1502 67.7577 23.1178 67.8392 23.0882 67.9137C23.0263 68.0692 22.9765 68.1944 22.7634 68.166C21.3454 67.9466 18.8426 68.6761 17.1941 69.1566C16.7906 69.2742 16.4383 69.3769 16.1657 69.4471C16.1657 69.4471 17.1952 71.8413 17.2163 71.8834C17.2793 72.0094 17.3003 72.1564 17.2583 72.3034C17.2342 72.4116 16.9347 72.4579 16.679 72.4974C16.4881 72.5268 16.3217 72.5525 16.3127 72.5974C16.2077 72.5344 16.1446 72.4504 16.1026 72.3664L15.052 69.9721C14.5687 70.0562 14.0434 69.9721 13.5602 69.6571C12.8878 69.2371 12.5516 68.418 12.6987 67.6619C12.8037 67.1789 13.0769 66.7798 13.4341 66.5278C11.8514 63.0782 11.0046 61.2721 10.5478 60.298C10.1314 59.4098 10.0392 59.2132 10.0092 59.093L9.736 59.114C9.08463 59.24 8.62237 58.5889 8.74844 58.3159C8.22315 58.5259 6.45814 57.9799 6.62624 55.9847C6.96243 56.1527 7.67684 56.4047 7.67684 56.4047C7.67684 56.4047 7.34064 54.7035 8.24416 54.1995C9.1897 53.7794 10.2823 55.1026 10.2823 55.1026C10.2823 55.1026 10.5345 54.3675 10.6185 53.9895C12.2574 55.0816 11.564 56.8458 11.0808 57.1188C11.3749 57.1818 11.5851 57.9589 11.0808 58.3999L10.9967 58.4839C11.1633 58.6807 11.2971 58.9756 12.5381 61.7102L12.5386 61.7113C13.0198 62.7716 13.6673 64.1986 14.5477 66.1287C14.7999 66.1497 15.052 66.1918 15.2832 66.2758C15.8295 66.4858 16.2287 66.9058 16.4388 67.4099C17.6785 68.061 19.6116 67.5569 21.4817 66.4228C21.4817 66.4438 23.0155 65.5617 24.9486 64.4486H24.9066L32.4528 59.9814L33.4203 64.7011ZM34.5053 66.4752L34.1521 68.2708L33.7789 66.4504C31.2864 66.7604 24.9424 67.7985 24.1479 70.1197C23.8117 71.0648 24.9253 72.3459 26.2281 72.5979C26.2491 72.5979 26.2701 72.5979 26.2911 72.5769C26.3121 72.5559 26.3331 72.5349 26.3331 72.5139C26.8584 69.6156 30.1993 68.8385 32.5317 68.3555C30.2203 69.3846 27.783 71.4218 27.4678 73.648C27.2787 74.8872 28.5394 75.9373 29.653 76.2313C29.7161 76.2523 29.7581 76.2103 29.7581 76.1473C29.9139 73.5769 31.4967 71.7287 32.5471 70.5022L32.5476 70.5016L32.5486 70.5004C32.6306 70.4047 32.7093 70.3128 32.7838 70.2247C32.6157 70.7917 32.4896 71.1908 32.4686 71.1908L32.4522 71.2345C32.2925 71.658 31.6575 73.3425 31.334 75.2022C31.1869 75.8533 31.1028 76.5253 31.0818 77.1764C31.0818 78.4575 33.6243 80.9778 33.9815 81.1248H34.0235C34.3807 80.9988 36.9231 78.4575 36.9231 77.1764C36.9231 76.5253 36.8181 75.8533 36.671 75.2022C36.3666 73.472 35.7868 71.8794 35.5861 71.3285C35.5651 71.2708 35.5483 71.2246 35.5364 71.1908C35.5364 71.1908 35.4103 70.7917 35.2212 70.2247C35.302 70.3203 35.3879 70.4203 35.4776 70.5248C36.5306 71.7513 38.1114 73.5926 38.2469 76.1473C38.2469 76.2103 38.3099 76.2523 38.352 76.2313C39.4656 75.9373 40.7263 74.8662 40.5372 73.648C40.201 71.4008 37.7636 69.3846 35.4733 68.3555C37.8267 68.8385 41.1465 69.5946 41.6718 72.5139C41.6718 72.5349 41.6929 72.5559 41.7139 72.5769C41.7349 72.5979 41.7559 72.5979 41.7769 72.5979C43.1007 72.3459 44.1933 71.0648 43.8571 70.1197C43.162 67.8568 37.1179 66.8134 34.5053 66.4752ZM34.8737 64.6022L35.7897 59.9451L37.0095 60.6892C38.779 61.7355 41.4132 63.2767 43.2685 64.3621L43.2707 64.3634C44.5425 65.1075 45.4477 65.6372 45.4563 65.6457C46.0446 65.8977 48.1458 66.4858 49.1754 66.0657C49.1754 66.0156 49.175 65.9636 49.1746 65.9098C49.1684 65.0858 49.1591 63.8618 50.5202 62.9154L52.6844 65.0786L54.9117 62.8944C54.9117 62.8944 56.5506 64.2385 56.4245 66.1287C56.2144 67.9979 55.1638 69.4681 52.7474 69.4681C51.4218 69.4681 50.7874 68.8924 49.9632 68.1446L49.8478 68.0399C48.6081 67.3049 46.2758 67.3679 44.2166 67.8929C44.0132 67.9471 43.9586 67.8352 43.8889 67.6925C43.8506 67.6141 43.8078 67.5264 43.7333 67.4519C42.2527 65.894 37.0328 64.7153 34.8737 64.6022ZM36.1638 58.0434L46.9902 64.6586C46.9271 64.3226 46.9061 63.9865 46.9061 63.6295C46.9061 60.4581 49.4906 57.8749 52.6634 57.8749C55.8362 57.8749 58.4206 60.4581 58.4206 63.6295C58.4206 64.6166 57.9374 66.0867 57.7483 66.3388C57.8743 66.1707 62.8752 64.9946 62.8752 64.9946C62.8752 64.9946 67.4768 69.0481 67.5608 69.0901C67.6239 69.0061 67.7289 68.838 67.5818 68.313C67.4792 67.9681 67.3203 67.5182 67.1311 66.9824C66.3525 64.7771 65.0604 61.1179 65.0604 57.3498C65.0604 51.7422 65.6277 47.6468 65.6277 47.6468H65.6067C67.4558 37.3347 59.5133 27.9887 52.8945 27.5477C51.1715 27.2956 49.3435 28.0097 48.3139 28.6818C47.243 29.401 46.8917 30.2267 46.5807 30.9575L46.5807 30.9576C46.5012 31.1444 46.4244 31.325 46.3388 31.4961C46.1707 31.8111 45.8765 32.2312 45.2672 32.6302C44.0905 33.1343 43.271 33.0083 42.7668 32.7982C37.871 30.0049 41.38 20.785 47.3684 21.058C49.6979 21.1615 49.675 21.7182 49.6622 22.0303C49.6595 22.0982 49.6571 22.1546 49.6797 22.1921C50.3521 20.2599 49.0283 17.6346 46.78 17.9497C44.6368 15.7957 42.8329 16.9108 40.7536 18.1962C39.1025 19.2169 37.2777 20.3449 34.9713 20.0289C35.1394 20.995 35.9379 22.2971 37.2826 22.5491C36.7135 23.3846 35.0907 26.3416 34.4018 28.1472L37.0307 40.9259L46.276 34.7093L40.0985 44.1183L55.143 47.0586L40.0775 50.1879L46.381 59.5759L37.0727 53.4223L36.1638 58.0434ZM33.5843 27.9485C32.8115 26.1318 31.2065 23.3726 30.6429 22.5702C31.9876 22.2971 32.7651 20.995 32.9332 20.0289C30.6254 20.373 28.7915 19.2631 27.1323 18.2588C25.045 16.9954 23.234 15.8993 21.1035 18.0757C18.8552 17.7816 17.5735 20.4069 18.2458 22.3391C18.2686 22.3012 18.2653 22.2441 18.2614 22.1752C18.2435 21.8622 18.2116 21.3045 20.5361 21.184C26.0833 20.869 29.5713 28.7448 26.1883 32.1682C26.1673 32.1472 26.1463 32.1052 26.1463 32.1052C26.1463 32.1052 24.8646 33.5123 22.7634 32.6302C22.1541 32.2312 21.8599 31.7901 21.6918 31.4961C21.5935 31.309 21.5078 31.1104 21.4189 30.9048C21.109 30.1872 20.7619 29.3838 19.7167 28.6818C18.6871 27.9887 16.859 27.2956 15.1361 27.5477C8.4963 27.9887 0.511765 37.3977 2.44486 47.7518H2.5079C2.59195 48.3819 3.07522 52.2463 3.07522 57.3498C3.07522 61.1233 1.78479 64.7838 1.00777 66.988C0.530604 68.3416 0.247044 69.146 0.574801 69.0901H0.595813C0.595813 69.0271 5.34451 65.0156 5.34451 65.0156C5.34451 65.0156 11.5851 66.0237 11.6271 66.0867C11.6376 66.0867 11.6533 66.0815 11.6691 66.0762C11.6849 66.071 11.7006 66.0657 11.7111 66.0657L9.25273 60.8152C7.06749 60.6682 5.3235 58.862 5.3235 56.6357C5.3235 54.3255 7.19356 52.4563 9.52588 52.4563C11.8372 52.4563 13.7283 54.3255 13.7283 56.6357C13.7283 57.6438 13.3711 58.5469 12.7827 59.261L15.7244 65.3517C17.5314 65.0786 19.2544 64.8686 20.8723 64.7216L32.0655 58.0924L31.1684 53.7163L21.9862 59.9119L28.3108 50.2929L12.9721 47.2686L28.0796 44.1393L21.8601 34.8563L31.0844 40.7159L33.5843 27.9485ZM53.9227 61.1313L52.5779 62.4334L51.2752 61.1313L52.5989 59.6192L53.9227 61.1313Z" fill="white"/>
</svg>
