<svg id="ebSz0mG12FE1" xmlns="http://www.w3.org/2000/svg" xmlns:xlink="http://www.w3.org/1999/xlink" viewBox="0 0 1418 1299" shape-rendering="geometricPrecision" text-rendering="geometricPrecision"><style><![CDATA[#ebSz0mG12FE14_to {animation: ebSz0mG12FE14_to__to 4900ms linear 1 normal forwards}@keyframes ebSz0mG12FE14_to__to { 0% {transform: translate(711px,266px)} 40.816327% {transform: translate(711px,266px);animation-timing-function: cubic-bezier(0,0,0,1.01)} 51.020408% {transform: translate(711px,266px);animation-timing-function: cubic-bezier(0.42,0,0.58,1)} 59.183673% {transform: translate(711px,266px);animation-timing-function: cubic-bezier(0.42,0,1,1)} 63.265306% {transform: translate(711px,290px);animation-timing-function: cubic-bezier(0,0,0.58,1)} 65.306122% {transform: translate(711px,308px)} 71.428571% {transform: translate(711px,286px);animation-timing-function: cubic-bezier(0.42,0,1,1)} 73.469388% {transform: translate(741.43px,283.43px);animation-timing-function: cubic-bezier(0.42,0,1,1)} 79.591837% {transform: translate(826.41px,500.4px)} 85.714286% {transform: translate(873.88px,1056.88px)} 100% {transform: translate(873.88px,1056.88px)}} #ebSz0mG12FE14_tr {animation: ebSz0mG12FE14_tr__tr 4900ms linear 1 normal forwards}@keyframes ebSz0mG12FE14_tr__tr { 0% {transform: rotate(0deg)} 71.428571% {transform: rotate(0deg);animation-timing-function: cubic-bezier(0.42,0,1,1)} 73.469388% {transform: rotate(-10.18deg);animation-timing-function: cubic-bezier(0.42,0,1,1)} 79.591837% {transform: rotate(-31.65deg)} 85.714286% {transform: rotate(-31.65deg)} 100% {transform: rotate(-31.65deg)}} #ebSz0mG12FE15_to {animation: ebSz0mG12FE15_to__to 4900ms linear 1 normal forwards}@keyframes ebSz0mG12FE15_to__to { 0% {transform: translate(711px,266px)} 40.816327% {transform: translate(711px,266px);animation-timing-function: cubic-bezier(0,0,0,1.01)} 51.020408% {transform: translate(711px,266px);animation-timing-function: cubic-bezier(0.42,0,0.58,1)} 59.183673% {transform: translate(711px,266px);animation-timing-function: cubic-bezier(0.42,0,1,1)} 63.265306% {transform: translate(711px,290px);animation-timing-function: cubic-bezier(0,0,0.58,1)} 65.306122% {transform: translate(711px,335px)} 71.428571% {transform: translate(711px,335px);animation-timing-function: cubic-bezier(0.42,0,1,1)} 73.469388% {transform: translate(711px,335px);animation-timing-function: cubic-bezier(0.42,0,1,1)} 79.591837% {transform: translate(687px,328px)} 85.714286% {transform: translate(711px,335px)} 91.836735% {transform: translate(749px,324px)} 100% {transform: translate(711px,335px)}} #ebSz0mG12FE16_to {animation: ebSz0mG12FE16_to__to 4900ms linear 1 normal forwards}@keyframes ebSz0mG12FE16_to__to { 0% {transform: translate(711px,266px)} 40.816327% {transform: translate(711px,266px)} 51.020408% {transform: translate(711px,266px)} 59.183673% {transform: translate(711px,266px)} 63.265306% {transform: translate(711px,290px)} 100% {transform: translate(711px,290px)}} #ebSz0mG12FE17_to {animation: ebSz0mG12FE17_to__to 4900ms linear 1 normal forwards}@keyframes ebSz0mG12FE17_to__to { 0% {transform: translate(967px,484px)} 40.816327% {transform: translate(967px,484px);animation-timing-function: cubic-bezier(0,0,0,1.01)} 51.020408% {transform: translate(1281px,484px);animation-timing-function: cubic-bezier(0.42,0,0.58,1)} 59.183673% {transform: translate(1259px,484px);animation-timing-function: cubic-bezier(0.42,0,1,1)} 63.265306% {transform: translate(1259px,132px);animation-timing-function: cubic-bezier(0,0,0.58,1)} 65.306122% {transform: translate(1259px,316px)} 71.428571% {transform: translate(1259px,670px);animation-timing-function: cubic-bezier(0.42,0,1,1)} 73.469388% {transform: translate(1259px,927px);animation-timing-function: cubic-bezier(0.42,0,1,1)} 79.591837% {transform: translate(1259px,762px)} 85.714286% {transform: translate(1259px,1248px)} 91.836735% {transform: translate(1259px,1248px)} 100% {transform: translate(1259px,1248px)}} #ebSz0mG12FE18_to {animation: ebSz0mG12FE18_to__to 4900ms linear 1 normal forwards}@keyframes ebSz0mG12FE18_to__to { 0% {transform: translate(710.999511px,266.000496px)} 59.183673% {transform: translate(710.999511px,266.000496px);animation-timing-function: cubic-bezier(0.42,0,1,1)} 63.265306% {transform: translate(710.999511px,289.999496px);animation-timing-function: cubic-bezier(0,0,0.58,1)} 65.306122% {transform: translate(710.999511px,308.000488px)} 71.428571% {transform: translate(710.999511px,285.999496px);animation-timing-function: cubic-bezier(0.42,0,1,1)} 73.469388% {transform: translate(741.429497px,283.430488px);animation-timing-function: cubic-bezier(0.42,0,1,1)} 79.591837% {transform: translate(826.400488px,500.399496px)} 100% {transform: translate(826.400488px,500.399496px)}} #ebSz0mG12FE18_tr {animation: ebSz0mG12FE18_tr__tr 4900ms linear 1 normal forwards}@keyframes ebSz0mG12FE18_tr__tr { 0% {transform: rotate(90deg)} 40.816327% {transform: rotate(90deg);animation-timing-function: cubic-bezier(0,0,0,1.01)} 46.938776% {transform: rotate(180deg)} 51.020408% {transform: rotate(180deg);animation-timing-function: cubic-bezier(0.42,0,0.58,1)} 57.142857% {transform: rotate(101.62458deg)} 59.183673% {transform: rotate(90deg);animation-timing-function: cubic-bezier(0.42,0,1,1)} 63.265306% {transform: rotate(90deg);animation-timing-function: cubic-bezier(0,0,0.58,1)} 65.306122% {transform: rotate(90deg)} 71.428571% {transform: rotate(90deg);animation-timing-function: cubic-bezier(0.42,0,1,1)} 73.469388% {transform: rotate(79.82deg);animation-timing-function: cubic-bezier(0.42,0,1,1)} 79.591837% {transform: rotate(58.35deg)} 100% {transform: rotate(58.35deg)}} #ebSz0mG12FE18 {animation: ebSz0mG12FE18_c_o 4900ms linear 1 normal forwards}@keyframes ebSz0mG12FE18_c_o { 0% {opacity: 1} 85.714286% {opacity: 1} 91.836735% {opacity: 0} 100% {opacity: 0}} #ebSz0mG12FE19_to {animation: ebSz0mG12FE19_to__to 4900ms linear 1 normal forwards}@keyframes ebSz0mG12FE19_to__to { 0% {transform: translate(602.33252px,266px)} 79.591837% {transform: translate(602.33252px,266px)} 85.714286% {transform: translate(677.038115px,447.157652px)} 100% {transform: translate(677.038115px,447.157652px)}} #ebSz0mG12FE19_tr {animation: ebSz0mG12FE19_tr__tr 4900ms linear 1 normal forwards}@keyframes ebSz0mG12FE19_tr__tr { 0% {transform: rotate(0deg)} 79.591837% {transform: rotate(0deg)} 85.714286% {transform: rotate(55.35deg)} 100% {transform: rotate(55.35deg)}} #ebSz0mG12FE20_to {animation: ebSz0mG12FE20_to__to 4900ms linear 1 normal forwards}@keyframes ebSz0mG12FE20_to__to { 0% {transform: translate(819.666504px,266px)} 79.591837% {transform: translate(819.666504px,266px)} 85.714286% {transform: translate(1136.441984px,360.243366px)} 100% {transform: translate(1136.441984px,360.243366px)}} #ebSz0mG12FE20_tr {animation: ebSz0mG12FE20_tr__tr 4900ms linear 1 normal forwards}@keyframes ebSz0mG12FE20_tr__tr { 0% {transform: rotate(0deg)} 79.591837% {transform: rotate(0deg)} 85.714286% {transform: rotate(178.39deg)} 100% {transform: rotate(178.39deg)}} #ebSz0mG12FE21_to {animation: ebSz0mG12FE21_to__to 4900ms linear 1 normal forwards}@keyframes ebSz0mG12FE21_to__to { 0% {transform: translate(710.998993px,157.334499px)} 79.591837% {transform: translate(710.998993px,157.334499px)} 85.714286% {transform: translate(892.108979px,36.480054px)} 100% {transform: translate(892.108979px,36.480054px)}} #ebSz0mG12FE21_tr {animation: ebSz0mG12FE21_tr__tr 4900ms linear 1 normal forwards}@keyframes ebSz0mG12FE21_tr__tr { 0% {transform: rotate(0deg)} 79.591837% {transform: rotate(0deg)} 85.714286% {transform: rotate(66.02deg)} 100% {transform: rotate(66.02deg)}} #ebSz0mG12FE22_to {animation: ebSz0mG12FE22_to__to 4900ms linear 1 normal forwards}@keyframes ebSz0mG12FE22_to__to { 0% {transform: translate(710.998993px,374.666504px)} 79.591837% {transform: translate(710.998993px,374.666504px)} 85.714286% {transform: translate(890.024121px,572.956578px)} 100% {transform: translate(890.024121px,572.956578px)}} #ebSz0mG12FE22_tr {animation: ebSz0mG12FE22_tr__tr 4900ms linear 1 normal forwards}@keyframes ebSz0mG12FE22_tr__tr { 0% {transform: rotate(0deg)} 79.591837% {transform: rotate(0deg)} 85.714286% {transform: rotate(158.14deg)} 100% {transform: rotate(158.14deg)}}]]></style><defs><filter id="ebSz0mG12FE8-filter" x="-400%" width="600%" y="-400%" height="600%"><feGaussianBlur id="ebSz0mG12FE8-filter-drop-shadow-0-blur" in="SourceAlpha" stdDeviation="5,5"/><feOffset id="ebSz0mG12FE8-filter-drop-shadow-0-offset" dx="0" dy="8" result="tmp"/><feFlood id="ebSz0mG12FE8-filter-drop-shadow-0-flood" flood-color="rgba(0,0,0,0.08)"/><feComposite id="ebSz0mG12FE8-filter-drop-shadow-0-composite" operator="in" in2="tmp"/><feMerge id="ebSz0mG12FE8-filter-drop-shadow-0-merge"><feMergeNode id="ebSz0mG12FE8-filter-drop-shadow-0-merge-node-1"/><feMergeNode id="ebSz0mG12FE8-filter-drop-shadow-0-merge-node-2" in="SourceGraphic"/></feMerge></filter><linearGradient id="ebSz0mG12FE11-fill" x1="572.033" y1="116.898" x2="755.601" y2="128.787" spreadMethod="pad" gradientUnits="userSpaceOnUse" gradientTransform="translate(0 0)"><stop id="ebSz0mG12FE11-fill-0" offset="0%" stop-color="#e1e9fa"/><stop id="ebSz0mG12FE11-fill-1" offset="100%" stop-color="#cedaf8"/></linearGradient><linearGradient id="ebSz0mG12FE14-fill" x1="590.417" y1="128" x2="799.452" y2="138.571" spreadMethod="pad" gradientUnits="userSpaceOnUse" gradientTransform="translate(0 0)"><stop id="ebSz0mG12FE14-fill-0" offset="0%" stop-color="#a9bbf4"/><stop id="ebSz0mG12FE14-fill-1" offset="100%" stop-color="#839df0"/></linearGradient><linearGradient id="ebSz0mG12FE15-fill" x1="630.612" y1="174" x2="769.968" y2="181.047" spreadMethod="pad" gradientUnits="userSpaceOnUse" gradientTransform="translate(0 0)"><stop id="ebSz0mG12FE15-fill-0" offset="0%" stop-color="#a9bbf4"/><stop id="ebSz0mG12FE15-fill-1" offset="100%" stop-color="#839df0"/></linearGradient><linearGradient id="ebSz0mG12FE16-fill" x1="669.932" y1="219" x2="741.125" y2="222.6" spreadMethod="pad" gradientUnits="userSpaceOnUse" gradientTransform="translate(0 0)"><stop id="ebSz0mG12FE16-fill-0" offset="0%" stop-color="#a9bbf4"/><stop id="ebSz0mG12FE16-fill-1" offset="100%" stop-color="#839df0"/></linearGradient></defs><path d="M235.693,57.6315c13.662-29.4191,43.469-49.819,78.041-49.819h131.641c37.911,0,70.093,24.5307,81.538,58.5853C577.69,20.7418,642.364,0,713.484,0c84.122,0,159.122,29.1551,212.788,94.1188c24.385,29.5192,41.709,63.2342,53.207,99.9112L1064.26,57.6313c13.66-29.419,43.47-49.8188,78.04-49.8188h131.64c47.49,0,86,38.5035,86,86v265.2105c33.65,11.669,57.81,43.65,57.81,81.274v101.562c0,37.624-24.16,69.605-57.81,81.275v39.428c0,47.497-38.51,86-86,86h-131.64c-47.5,0-86-38.503-86-86v-34.703h-105.515c-7.239,12.18-15.412,23.827-24.586,34.875-53.444,64.698-128.197,93.641-211.933,93.641-71.426,0-136.339-20.892-187.19-66.889-11.3,34.31-43.608,59.076-81.701,59.076h-131.641c-47.496,0-86-38.503-86-86v-34.703h-133.9214c-44.2776,0-81.3188-33.619-85.59752-77.689L0.402575,469.701C-1.42225,450.905,2.99016,432.031,12.9587,415.993L235.693,57.6315Z" clip-rule="evenodd" fill="#e1e9fa" fill-rule="evenodd"/><g><path d="M140,471.303L304.173,154h97.904v377.337h-262.077v-60.034Z" clip-rule="evenodd" fill="#cfd7e6" fill-rule="evenodd"/></g><rect width="234" height="126" rx="0" ry="0" transform="matrix(0-1 1 0 346 667)" fill="#cfd7e6"/><path d="M217,246L348,500h-262L217,246Z" fill="#fbfcfe"/><g style="mix-blend-mode:multiply"><path d="M611,434.637c.476.634.777,1.41.833,2.251c3.435,51.918,45.61,92.94,97.132,92.94c51.523,0,93.698-41.022,97.133-92.94.058-.882.386-1.691.902-2.341v-1.547h3.144c.008,0,.017,0,.025,0h123.246c.009,0,.017,0,.025,0h398.56v102h-419.518C874.591,609.801,797.561,661,708.7,661c-88.862,0-165.891-51.199-203.783-126L140,535v-102h343.962c.007,0,.015,0,.022,0h123.777c.008,0,.015,0,.022,0h3.217v1.637Z" clip-rule="evenodd" filter="url(#ebSz0mG12FE8-filter)" fill="#fff" fill-rule="evenodd"/></g><rect width="585" height="78" rx="0" ry="0" transform="matrix(0-1 1 0 1220 667)" opacity="0.5" fill="#eef3fc"/><rect width="102" height="375" rx="0" ry="0" transform="matrix(0-1 1 0 140 535)" fill="#e1e9fa"/><path d="M711,404c76.215,0,138-61.785,138-138s-61.785-138-138-138-138,61.785-138,138s61.785,138,138,138Zm0-91c25.957,0,47-21.043,47-47s-21.043-47-47-47-47,21.043-47,47s21.043,47,47,47Z" clip-rule="evenodd" fill="url(#ebSz0mG12FE11-fill)" fill-rule="evenodd"/><circle r="17" transform="translate(711 266)" fill="#2651e7"/><path d="M702.879,273.554c-1.172-1.171-1.172-3.071,0-4.242l11.434-11.435c1.172-1.172,3.072-1.172,4.243,0c1.172,1.172,1.172,3.071,0,4.243l-11.435,11.434c-1.171,1.172-3.071,1.172-4.242,0Z" clip-rule="evenodd" fill="#e1e9fa" fill-rule="evenodd"/><g id="ebSz0mG12FE14_to" transform="translate(711,266)"><g id="ebSz0mG12FE14_tr" transform="rotate(0)"><path d="M711,398c72.902,0,132-59.098,132-132s-59.098-132-132-132-132,59.098-132,132s59.098,132,132,132Zm0,6c76.215,0,138-61.785,138-138s-61.785-138-138-138-138,61.785-138,138s61.785,138,138,138Z" transform="translate(-711,-266)" clip-rule="evenodd" fill="url(#ebSz0mG12FE14-fill)" fill-rule="evenodd"/></g></g><g id="ebSz0mG12FE15_to" transform="translate(711,266)"><path d="M711,352c47.496,0,86-38.504,86-86s-38.504-86-86-86-86,38.504-86,86s38.504,86,86,86Zm0,6c50.81,0,92-41.19,92-92s-41.19-92-92-92-92,41.19-92,92s41.19,92,92,92Z" transform="translate(-711,-266)" clip-rule="evenodd" fill="url(#ebSz0mG12FE15-fill)" fill-rule="evenodd"/></g><g id="ebSz0mG12FE16_to" transform="translate(711,266)"><path d="M711,307c22.644,0,41-18.356,41-41s-18.356-41-41-41-41,18.356-41,41s18.356,41,41,41Zm0,6c25.957,0,47-21.043,47-47s-21.043-47-47-47-47,21.043-47,47s21.043,47,47,47Z" transform="translate(-711,-266)" clip-rule="evenodd" fill="url(#ebSz0mG12FE16-fill)" fill-rule="evenodd"/></g><g id="ebSz0mG12FE17_to" transform="translate(967,484)"><circle r="51" transform="translate(0,0)" fill="#cedaf8"/></g><g id="ebSz0mG12FE18_to" transform="translate(710.999511,266.000496)"><g id="ebSz0mG12FE18_tr" transform="rotate(90)"><g id="ebSz0mG12FE18" transform="translate(-710.999511,-266.000495)"><g id="ebSz0mG12FE19_to" transform="translate(602.33252,266)"><g id="ebSz0mG12FE19_tr" transform="rotate(0)"><path d="M651.666,266c0,2.044-1.657,3.7-3.7,3.7h-91.267c-2.043,0-3.7-1.656-3.7-3.7c0-2.043,1.657-3.7,3.7-3.7h91.267c2.043,0,3.7,1.657,3.7,3.7Z" transform="translate(-602.33252,-266)" clip-rule="evenodd" fill="#a4b7f4" fill-rule="evenodd"/></g></g><g id="ebSz0mG12FE20_to" transform="translate(819.666504,266)"><g id="ebSz0mG12FE20_tr" transform="rotate(0)"><path d="M869,266c0,2.044-1.657,3.7-3.7,3.7h-91.267c-2.043,0-3.7-1.656-3.7-3.7c0-2.043,1.657-3.7,3.7-3.7h91.267c2.043,0,3.7,1.657,3.7,3.7Z" transform="translate(-819.666504,-266)" clip-rule="evenodd" fill="#839df0" fill-rule="evenodd"/></g></g><g id="ebSz0mG12FE21_to" transform="translate(710.998993,157.334499)"><g id="ebSz0mG12FE21_tr" transform="rotate(0)"><path d="M710.999,206.668c-2.043,0-3.7-1.657-3.7-3.7v-91.267c0-2.043,1.657-3.7,3.7-3.7c2.044,0,3.7,1.657,3.7,3.7v91.267c0,2.043-1.656,3.7-3.7,3.7Z" transform="translate(-710.998993,-157.334499)" clip-rule="evenodd" fill="#839df0" fill-rule="evenodd"/></g></g><g id="ebSz0mG12FE22_to" transform="translate(710.998993,374.666504)"><g id="ebSz0mG12FE22_tr" transform="rotate(0)"><path d="M710.999,424c-2.043,0-3.7-1.657-3.7-3.7v-91.267c0-2.043,1.657-3.7,3.7-3.7c2.044,0,3.7,1.657,3.7,3.7v91.267c0,2.043-1.656,3.7-3.7,3.7Z" transform="translate(-710.998993,-374.666504)" clip-rule="evenodd" fill="#839df0" fill-rule="evenodd"/></g></g></g></g></g></svg>