<svg width="620" height="300" viewBox="0 0 620 300" fill="none" xmlns="http://www.w3.org/2000/svg">
<path d="M386.88 159.062C403.239 152.654 438.179 75.876 452.404 75.1641C465.207 75.1641 483.782 180.65 479.43 184.096C475.447 187.251 312.349 240.946 301.61 234.905C293.7 230.456 274.694 149.295 285.533 142.282C296.943 134.899 370.521 165.47 386.88 159.062Z" fill="#F4F6FA"/>
<path fill-rule="evenodd" clip-rule="evenodd" d="M436.326 69.5933C435.665 67.3535 433.33 66.0678 431.091 66.7066L275.284 111.171C274.469 111.403 274.393 112.533 275.169 112.873L372.876 155.598C376.199 157.052 380.085 155.947 382.154 152.957L434.201 77.74C435.181 76.3235 436.436 75.2986 437.819 74.6493L436.326 69.5933ZM437.94 74.7038C436.542 75.3435 435.272 76.3685 434.283 77.7969L382.236 153.014C380.14 156.043 376.203 157.163 372.835 155.69L275.129 112.965C274.267 112.588 274.351 111.333 275.256 111.074L431.064 66.6104C433.355 65.9566 435.746 67.2727 436.422 69.565L437.94 74.7038ZM457.744 129.771C457.748 129.781 457.751 129.791 457.754 129.801C457.755 129.806 457.756 129.811 457.758 129.815C458.083 131.036 459.264 133.62 460.919 135.812C461.742 136.903 462.654 137.857 463.598 138.495C464.218 138.914 464.827 139.181 465.419 139.277L449.02 80.8902C447.809 76.5797 443.491 74.596 439.732 75.5891L457.744 129.771ZM465.449 139.383C464.824 139.29 464.186 139.013 463.542 138.578C462.586 137.932 461.666 136.968 460.839 135.872C459.178 133.671 457.99 131.076 457.661 129.841C457.658 129.828 457.654 129.815 457.649 129.802L439.604 75.5203C439.636 75.5113 439.668 75.5025 439.7 75.494C443.508 74.4846 447.889 76.4928 449.116 80.8632L465.557 139.397C465.521 139.393 465.485 139.388 465.449 139.383Z" fill="#95979F"/>
<path fill-rule="evenodd" clip-rule="evenodd" d="M465.795 140.946L474.783 172.944C475.405 175.161 474.118 177.463 471.91 178.09L309.616 224.11C307.426 224.73 305.144 223.471 304.498 221.28L278.792 134.064C277.854 130.881 274.491 129.105 271.335 130.094C267.505 131.295 262.733 133.869 257.162 136.985C256.399 137.412 255.62 137.849 254.826 138.296C249.782 141.129 244.095 144.324 237.781 147.41C223.168 154.553 205.261 161.083 184.509 161.083C162.197 161.083 147.464 158.412 130.152 155.274C126.613 154.633 122.966 153.972 119.125 153.31C96.4818 149.409 67.2065 145.512 13.6708 145.512C13.1951 145.512 12.8096 145.897 12.8096 146.373C12.8096 146.849 13.1951 147.234 13.6708 147.234C67.1056 147.234 96.2831 151.123 118.833 155.007C122.653 155.665 126.285 156.324 129.817 156.964L129.82 156.965L129.822 156.965L129.824 156.966C147.149 160.107 162.034 162.805 184.509 162.805C205.627 162.805 223.804 156.159 238.538 148.957C244.899 145.848 250.631 142.628 255.672 139.796C256.465 139.35 257.243 138.913 258.003 138.489C263.615 135.349 268.224 132.875 271.85 131.738C274.093 131.034 276.475 132.298 277.14 134.551L302.846 221.767C303.758 224.861 306.985 226.646 310.086 225.767L472.38 179.747C475.504 178.861 477.32 175.607 476.441 172.478L467.524 140.731C469.726 140.303 471.81 139.65 473.933 138.911C474.77 138.619 475.61 138.315 476.465 138.005C478.029 137.439 479.644 136.855 481.403 136.287C486.799 134.544 493.429 133 503.14 133C515.826 133 526.934 134.955 537.127 136.922C538.056 137.101 538.978 137.281 539.893 137.459L539.904 137.461C548.998 139.232 557.436 140.874 565.587 140.874C575.642 140.874 580.87 139.199 585.736 137.639L586.209 137.487C591.121 135.916 595.816 134.519 605.269 135.167C605.744 135.2 606.155 134.841 606.188 134.367C606.22 133.892 605.862 133.481 605.387 133.449C595.643 132.781 590.719 134.236 585.685 135.847L585.2 136.002L585.199 136.002C580.409 137.538 575.376 139.152 565.587 139.152C557.614 139.152 549.34 137.542 540.203 135.764L540.188 135.761C539.285 135.586 538.374 135.408 537.454 135.231C527.245 133.261 516 131.278 503.14 131.278C493.221 131.278 486.412 132.859 480.874 134.648C479.089 135.224 477.423 135.827 475.844 136.398L475.841 136.399C474.993 136.706 474.17 137.004 473.366 137.284C471.225 138.03 469.188 138.664 467.056 139.067L450.591 80.4451C449.118 75.2004 443.87 72.8161 439.331 74.0031L437.892 69.1273C436.977 66.0312 433.745 64.2478 430.643 65.1331L274.835 109.597C272.549 110.25 272.336 113.412 274.515 114.365L372.221 157.09C376.261 158.857 380.984 157.512 383.496 153.883L435.543 78.6651C436.29 77.5861 437.218 76.7923 438.236 76.2604L456.185 130.252L456.186 130.255C456.581 131.715 457.864 134.471 459.616 136.792C460.5 137.963 461.537 139.069 462.683 139.844C463.62 140.477 464.673 140.917 465.795 140.946ZM465.293 139.159L448.933 80.9108C447.746 76.6875 443.541 74.7234 439.847 75.6485L457.829 129.739C457.833 129.75 457.836 129.761 457.84 129.773L457.844 129.789C458.166 130.996 459.341 133.57 460.99 135.754C461.811 136.841 462.715 137.786 463.648 138.417C464.211 138.797 464.761 139.048 465.293 139.159ZM436.24 69.6151C435.592 67.4225 433.306 66.1642 431.116 66.7894L275.308 111.253C274.574 111.463 274.506 112.481 275.205 112.787L372.911 155.512C376.195 156.948 380.035 155.856 382.079 152.903L434.127 77.685C435.099 76.2793 436.341 75.2548 437.711 74.5973L436.24 69.6151Z" fill="#95979F"/>
</svg>
