<svg width="2087" height="1200" viewBox="0 0 2087 1200" fill="none" xmlns="http://www.w3.org/2000/svg">
<path d="M156.739 999.44H355.439V1043.04C355.439 1122.85 420.136 1187.55 499.944 1187.55H705.379C776.652 1187.55 835.873 1135.95 847.725 1068.07C932.463 1159.06 1046.22 1199.72 1171.82 1199.72C1304.94 1199.72 1424.72 1153.68 1510.43 1050.07C1547.07 1005.99 1573.65 956.068 1591.9 902.042V1043.04C1591.9 1122.85 1656.6 1187.55 1736.41 1187.55H1942.45C2022.26 1187.55 2086.96 1122.85 2086.96 1043.04V156.68C2086.96 76.8723 2022.26 12.1753 1942.45 12.1753H1923.56C1907.5 12.1753 1891.56 14.851 1876.38 20.0925L1507.98 147.332C1422.11 45.4689 1303.01 0 1170.6 0C1045.55 0 932.213 40.3695 847.547 130.658C835.293 63.2702 776.303 12.1753 705.379 12.1753H499.944C442.107 12.1753 392.206 46.1537 369.115 95.2376L21.8632 653.173C5.07714 680.144 -2.35368 711.894 0.720272 743.513L12.9123 868.919C20.1107 942.961 82.347 999.44 156.739 999.44Z" fill="#E1E9FA"/>
<g style="mix-blend-mode:multiply" filter="url(#filter0_d_420_188)">
<circle cx="1929.01" cy="181.47" r="36.9663" fill="white"/>
</g>
<path d="M453.717 1036.74H620.065V1073.7H487.323V1073.55C468.481 1071.85 453.717 1056.02 453.717 1036.74Z" fill="#EBF1FC"/>
<rect x="361.305" y="833.421" width="166.348" height="409.99" transform="rotate(-90 361.305 833.421)" fill="#EBF1FC"/>
<g style="mix-blend-mode:multiply" filter="url(#filter1_d_420_188)">
<path d="M166.392 668.071L425.326 225.158H579.743V751.867H166.392V668.071Z" fill="white"/>
</g>
<path d="M1713.93 396.843L1640 434.886V475.523H1668.56V1036.74C1668.56 1057.15 1685.11 1073.7 1705.53 1073.7C1708.42 1073.7 1711.23 1073.37 1713.93 1072.75V396.843Z" fill="#EBF1FC"/>
<path d="M1396.36 1082.94C1396.36 1101.97 1302.33 1117.39 1186.33 1117.39C1070.33 1117.39 976.293 1101.97 976.293 1082.94C976.293 1063.92 1070.33 1048.5 1186.33 1048.5C1302.33 1048.5 1396.36 1063.92 1396.36 1082.94Z" fill="#CFD7E6"/>
<path fill-rule="evenodd" clip-rule="evenodd" d="M776.883 248.683C779.367 248.683 781.649 250.053 782.816 252.246L795.557 276.182C798.085 280.933 804.894 280.933 807.423 276.182L820.163 252.246C821.33 250.053 823.612 248.683 826.096 248.683L829.993 248.683C835.015 248.683 838.263 253.991 835.978 258.463L808.314 312.586C805.819 317.469 798.841 317.469 796.345 312.586L768.682 258.463C766.396 253.991 769.644 248.683 774.667 248.683L776.883 248.683Z" fill="#818997"/>
<path d="M1616.48 504.087C1616.48 528.215 1596.54 547.774 1571.95 547.774C1547.36 547.774 1527.42 528.215 1527.42 504.087C1527.42 479.959 1547.36 460.399 1571.95 460.399C1596.54 460.399 1616.48 479.959 1616.48 504.087Z" fill="url(#paint0_linear_420_188)"/>
<path d="M1564.39 184.832C1564.39 181.12 1567.4 178.111 1571.11 178.111H1572.79C1576.51 178.111 1579.52 181.12 1579.52 184.832V381.426C1579.52 385.138 1576.51 388.147 1572.79 388.147H1571.11C1567.4 388.147 1564.39 385.138 1564.39 381.426V184.832Z" fill="#818997"/>
<path d="M794.822 746.047C794.822 749.759 797.831 752.769 801.543 752.769H803.224C806.936 752.769 809.945 749.759 809.945 746.047V327.656C809.945 323.944 806.936 320.935 803.224 320.935H801.543C797.831 320.935 794.822 323.944 794.822 327.656V746.047Z" fill="#818997"/>
<path fill-rule="evenodd" clip-rule="evenodd" d="M1537.51 393.188C1533.79 393.188 1530.79 396.198 1530.79 399.91V408.311C1530.79 412.023 1533.79 415.032 1537.51 415.032H1564.39V440.237C1564.39 443.948 1567.4 446.958 1571.11 446.958H1572.79C1576.51 446.958 1579.52 443.948 1579.52 440.237V415.032H1609.76C1613.47 415.032 1616.48 412.023 1616.48 408.311V399.91C1616.48 396.198 1613.47 393.188 1609.76 393.188H1572.79H1571.11H1537.51Z" fill="#9DA3AF"/>
<path fill-rule="evenodd" clip-rule="evenodd" d="M1076.47 346.412C1078.77 341.94 1075.52 336.619 1070.49 336.619H1059.5C1056.99 336.619 1054.68 338.024 1053.53 340.26L1033.89 378.346C1031.58 382.819 1034.83 388.147 1039.86 388.147H1336.64C1341.67 388.147 1344.92 382.819 1342.61 378.346L1320.87 336.177C1320.72 335.894 1320.3 335.997 1320.3 336.316V336.316C1320.3 336.483 1320.16 336.619 1319.99 336.619H1306.01C1300.98 336.619 1297.73 341.94 1300.03 346.412L1302.38 350.977C1304.67 355.45 1301.43 360.77 1296.4 360.77H1080.1C1075.07 360.77 1071.82 355.45 1074.12 350.977L1076.47 346.412Z" fill="#818997"/>
<path d="M846.91 504.087C846.91 528.215 826.974 547.774 802.382 547.774C777.79 547.774 757.854 528.215 757.854 504.087C757.854 479.959 777.79 460.399 802.382 460.399C826.974 460.399 846.91 479.959 846.91 504.087Z" fill="url(#paint1_linear_420_188)"/>
<path fill-rule="evenodd" clip-rule="evenodd" d="M1182.04 684.091C1184.54 688.937 1191.47 688.937 1193.98 684.091L1292.25 494.005H1344.27H1507.26C1510.97 494.005 1513.98 497.014 1513.98 500.726V684.757C1513.98 690.104 1508.03 693.325 1503.5 690.486C1457.18 661.449 1406.53 638.601 1352.74 623.11C1348.48 621.884 1344.27 625.102 1344.27 629.532V1058.58C1344.27 1062.29 1341.26 1065.3 1337.55 1065.3H1036.78C1033.07 1065.3 1030.06 1062.29 1030.06 1058.58V629.532C1030.06 625.102 1025.85 621.884 1021.59 623.11C967.799 638.601 917.153 661.449 870.829 690.486C866.299 693.325 860.35 690.104 860.35 684.757V500.726C860.35 497.014 863.359 494.005 867.071 494.005H1030.06H1083.76L1182.04 684.091Z" fill="url(#paint2_linear_420_188)"/>
<g style="mix-blend-mode:multiply" filter="url(#filter2_d_420_188)">
<path d="M1193.98 638.755C1191.47 643.593 1184.55 643.593 1182.04 638.755L1097.32 475.253C1095 470.779 1098.25 465.44 1103.29 465.44L1272.73 465.44C1277.77 465.44 1281.02 470.779 1278.7 475.253L1193.98 638.755Z" fill="white"/>
</g>
<path d="M1182.88 167.805C1185.38 162.962 1192.31 162.962 1194.82 167.805L1283.75 339.691C1286.06 344.165 1282.82 349.501 1277.78 349.501H1099.91C1094.88 349.501 1091.63 344.165 1093.95 339.691L1182.88 167.805Z" fill="#9DA3AF"/>
<path d="M1068.54 1056.67C1066.53 1057.82 1065.35 1059.99 1065.35 1062.3V1077.07C1065.35 1080.78 1068.36 1083.79 1072.07 1083.79H1149.36C1153.08 1083.79 1156.09 1080.78 1156.09 1077.07V1062.78C1156.09 1053.54 1132.56 1045.14 1110.72 1045.14C1095.53 1045.14 1080.78 1049.69 1068.54 1056.67Z" fill="#818997"/>
<path d="M1221.44 1056.67C1219.43 1057.82 1218.25 1059.99 1218.25 1062.3V1077.07C1218.25 1080.78 1221.26 1083.79 1224.97 1083.79H1302.26C1305.98 1083.79 1308.99 1080.78 1308.99 1077.07V1062.78C1308.99 1056.06 1285.46 1045.14 1263.62 1045.14C1248.43 1045.14 1233.68 1049.69 1221.44 1056.67Z" fill="#818997"/>
<defs>
<filter id="filter0_d_420_188" x="1882.04" y="142.504" width="93.9326" height="93.9326" filterUnits="userSpaceOnUse" color-interpolation-filters="sRGB">
<feFlood flood-opacity="0" result="BackgroundImageFix"/>
<feColorMatrix in="SourceAlpha" type="matrix" values="0 0 0 0 0 0 0 0 0 0 0 0 0 0 0 0 0 0 127 0" result="hardAlpha"/>
<feOffset dy="8"/>
<feGaussianBlur stdDeviation="5"/>
<feComposite in2="hardAlpha" operator="out"/>
<feColorMatrix type="matrix" values="0 0 0 0 0.164706 0 0 0 0 0.164706 0 0 0 0 0.164706 0 0 0 0.15 0"/>
<feBlend mode="normal" in2="BackgroundImageFix" result="effect1_dropShadow_420_188"/>
<feBlend mode="normal" in="SourceGraphic" in2="effect1_dropShadow_420_188" result="shape"/>
</filter>
<filter id="filter1_d_420_188" x="156.392" y="223.158" width="433.352" height="546.708" filterUnits="userSpaceOnUse" color-interpolation-filters="sRGB">
<feFlood flood-opacity="0" result="BackgroundImageFix"/>
<feColorMatrix in="SourceAlpha" type="matrix" values="0 0 0 0 0 0 0 0 0 0 0 0 0 0 0 0 0 0 127 0" result="hardAlpha"/>
<feOffset dy="8"/>
<feGaussianBlur stdDeviation="5"/>
<feComposite in2="hardAlpha" operator="out"/>
<feColorMatrix type="matrix" values="0 0 0 0 0.164706 0 0 0 0 0.164706 0 0 0 0 0.164706 0 0 0 0.15 0"/>
<feBlend mode="normal" in2="BackgroundImageFix" result="effect1_dropShadow_420_188"/>
<feBlend mode="normal" in="SourceGraphic" in2="effect1_dropShadow_420_188" result="shape"/>
</filter>
<filter id="filter2_d_420_188" x="1086.56" y="463.439" width="202.907" height="196.944" filterUnits="userSpaceOnUse" color-interpolation-filters="sRGB">
<feFlood flood-opacity="0" result="BackgroundImageFix"/>
<feColorMatrix in="SourceAlpha" type="matrix" values="0 0 0 0 0 0 0 0 0 0 0 0 0 0 0 0 0 0 127 0" result="hardAlpha"/>
<feOffset dy="8"/>
<feGaussianBlur stdDeviation="5"/>
<feComposite in2="hardAlpha" operator="out"/>
<feColorMatrix type="matrix" values="0 0 0 0 0.164706 0 0 0 0 0.164706 0 0 0 0 0.164706 0 0 0 0.15 0"/>
<feBlend mode="normal" in2="BackgroundImageFix" result="effect1_dropShadow_420_188"/>
<feBlend mode="normal" in="SourceGraphic" in2="effect1_dropShadow_420_188" result="shape"/>
</filter>
<linearGradient id="paint0_linear_420_188" x1="1533.04" y1="460.399" x2="1600.49" y2="463.876" gradientUnits="userSpaceOnUse">
<stop stop-color="#839DF0"/>
<stop offset="1" stop-color="#5C7DEC"/>
</linearGradient>
<linearGradient id="paint1_linear_420_188" x1="763.474" y1="460.399" x2="830.916" y2="463.876" gradientUnits="userSpaceOnUse">
<stop stop-color="#839DF0"/>
<stop offset="1" stop-color="#5C7DEC"/>
</linearGradient>
<linearGradient id="paint2_linear_420_188" x1="1002.33" y1="416.712" x2="1464.41" y2="1040.94" gradientUnits="userSpaceOnUse">
<stop stop-color="#CFD7E6"/>
<stop offset="1" stop-color="#9DA3AF"/>
</linearGradient>
</defs>
</svg>
