<svg width="2233" height="1201" viewBox="0 0 2233 1201" fill="none" xmlns="http://www.w3.org/2000/svg">
<path fill-rule="evenodd" clip-rule="evenodd" d="M157.565 1000.33H355.436V1043.84C355.436 1123.71 420.182 1188.46 500.051 1188.46H705.055C763.555 1188.46 813.943 1153.72 836.717 1103.75C916.274 1170.38 1015.63 1200.63 1123.8 1200.63C1210.3 1200.63 1291.15 1181.13 1360.65 1139C1387.15 1169.31 1426.11 1188.46 1469.55 1188.46H2087.6C2167.47 1188.46 2232.22 1123.71 2232.22 1043.84V885.55C2232.22 805.682 2167.47 740.936 2087.6 740.936H2063.59C2077.64 724.63 2090.12 709.286 2100.89 694.967C2134.13 650.928 2161.82 604.879 2180.75 556.917C2180.82 556.73 2180.9 556.542 2180.97 556.355C2200.32 506.727 2210.32 454.841 2210.32 401.537C2210.32 286.392 2172.71 178.642 2081.85 101.094C1995.18 26.7558 1883.18 0 1767.02 0C1685.63 0 1607.8 17.9466 1536.66 56.2393C1500.86 75.5095 1468.53 98.9347 1440.04 126.341C1356.19 39.6591 1245.1 0.608827 1122.58 0.608827C1014.85 0.608827 915.841 30.6627 836.412 96.8281C813.495 47.2134 763.296 12.7852 705.055 12.7852L500.051 12.7853C442.126 12.7853 392.155 46.8413 369.069 96.0228L22.5471 654.007C5.80596 680.964 -1.60378 712.679 1.46015 744.264L13.6266 869.681C20.816 943.793 83.1053 1000.33 157.565 1000.33Z" fill="#E1E9FA"/>
<rect x="491.8" y="875.628" width="166.475" height="410.301" transform="rotate(-90 491.8 875.628)" fill="#EBF1FC"/>
<path d="M2118.71 482.612V437.304C2118.71 423.908 2118.71 417.21 2118.52 411.547C2112.56 239.826 1974.73 101.997 1803.01 96.0449C1797.48 95.8533 1790.97 95.8487 1778.19 95.8486L1778.19 482.612H2118.71Z" fill="#EBF1FC"/>
<g style="mix-blend-mode:multiply" filter="url(#filter0_d_420_213)">
<path d="M2047.34 482.613V446.76C2047.34 436.159 2047.34 430.859 2047.19 426.378C2042.48 290.494 1933.41 181.429 1797.53 176.719C1793.05 176.563 1787.75 176.563 1777.15 176.563C1766.55 176.563 1761.25 176.563 1756.77 176.719C1627.57 181.197 1522.62 280.006 1508.55 406.509H1689.65C1690.83 359.196 1729.55 321.205 1777.15 321.205C1825.49 321.205 1864.68 360.393 1864.68 408.734V482.613H2047.34Z" fill="white"/>
</g>
<g style="mix-blend-mode:multiply" filter="url(#filter1_d_420_213)">
<path d="M189.12 712.298L448.251 269.05H602.785V796.158H189.12V712.298Z" fill="white"/>
</g>
<ellipse cx="1122.38" cy="1009.78" rx="277.458" ry="34.472" fill="#CFD7E6"/>
<path d="M1297.27 903.635C1297.27 901.426 1295.48 899.635 1293.27 899.635H1252.5C1250.29 899.635 1248.5 901.426 1248.5 903.635V1006.62C1248.5 1008.83 1250.29 1010.62 1252.5 1010.62H1293.27C1295.48 1010.62 1297.27 1008.83 1297.27 1006.62V903.635Z" fill="#9DA3AF"/>
<path d="M949.181 903.635C949.181 901.426 950.972 899.635 953.181 899.635H993.947C996.156 899.635 997.947 901.426 997.947 903.635V1006.62C997.947 1008.83 996.156 1010.62 993.947 1010.62H953.181C950.972 1010.62 949.181 1008.83 949.181 1006.62V903.635Z" fill="#9DA3AF"/>
<path fill-rule="evenodd" clip-rule="evenodd" d="M1123.23 669.259C1223.06 669.259 1303.99 589.455 1303.99 491.013C1303.99 392.571 1223.06 312.768 1123.23 312.768C1023.39 312.768 942.458 392.571 942.458 491.013C942.458 589.455 1023.39 669.259 1123.23 669.259ZM1123.23 622.175C1197.06 622.175 1256.91 563.452 1256.91 491.013C1256.91 418.574 1197.06 359.851 1123.23 359.851C1049.39 359.851 989.542 418.574 989.542 491.013C989.542 563.452 1049.39 622.175 1123.23 622.175Z" fill="#BBC9F6"/>
<path d="M1254.1 517.916C1241.45 577.449 1187.66 622.173 1123.23 622.173C1058.79 622.173 1005.01 577.449 992.359 517.916H1254.1Z" fill="#A5B7F3"/>
<path d="M1326.71 696.169C1333.19 696.169 1335.8 688.064 1330.4 684.488C1270.89 645.107 1199.55 622.176 1122.85 622.176C1046.15 622.176 974.803 645.107 915.297 684.488C909.892 688.064 912.506 696.169 918.987 696.169L1326.71 696.169Z" fill="url(#paint0_linear_420_213)"/>
<g filter="url(#filter2_d_420_213)">
<path d="M1302.98 354.068C1301.28 350.763 1297.23 349.457 1293.92 351.153L1096.42 452.453C1093.11 454.149 1091.81 458.202 1093.5 461.508L1213.22 694.92C1214.92 698.225 1218.97 699.53 1222.28 697.835L1419.78 596.534C1423.09 594.839 1424.39 590.785 1422.7 587.48L1302.98 354.068Z" fill="#FBFCFE"/>
</g>
<path d="M1286.1 544.235L1269.21 552.502L1277.93 570.893L1262 578.691L1253.29 560.301L1242.51 565.578L1236.19 552.676L1246.97 547.399L1244.99 543.363L1234.22 548.641L1227.9 535.739L1238.68 530.461L1220.48 493.295L1250.53 478.581C1256.34 475.739 1261.94 474.287 1267.36 474.227C1272.77 474.166 1277.63 475.493 1281.94 478.208C1286.27 480.871 1289.65 484.68 1292.08 489.635C1295.82 497.281 1296.18 504.59 1293.14 511.562C1290.14 518.517 1284.02 524.256 1274.78 528.779L1260.92 535.564L1262.9 539.6L1279.78 531.333L1286.1 544.235ZM1254.6 522.662L1268.36 515.929C1277.28 511.562 1279.82 505.467 1275.99 497.644C1274.17 493.928 1271.57 491.491 1268.2 490.335C1264.81 489.144 1261.1 489.509 1257.09 491.432L1242.75 498.451L1254.6 522.662Z" fill="#2651E7"/>
<path d="M915.553 716.35C911.838 716.35 908.827 719.361 908.827 723.076V797.058C908.827 797.058 911.838 797.065 915.553 797.065H957.592C1004.11 762.439 1061.45 741.947 1123.9 741.947C1186.34 741.947 1242.34 762.439 1288.86 797.065H1330.9C1334.61 797.065 1337.62 797.065 1337.62 797.065V723.076C1337.62 719.361 1334.61 716.35 1330.9 716.35H915.553Z" fill="#818997"/>
<path d="M1288.82 797.033C1288.83 797.043 1288.85 797.053 1288.86 797.063H1337.55C1337.6 798.176 1337.62 799.295 1337.62 800.42C1337.62 844.069 1301.86 879.453 1257.75 879.453C1256.66 879.453 1255.57 879.431 1254.48 879.388C1251.07 879.252 1248.5 876.346 1248.5 872.926V834.663C1248.5 832.418 1250.46 830.688 1252.7 830.688C1272.1 830.688 1287.93 815.766 1288.82 797.033Z" fill="#9DA3AF"/>
<path d="M908.898 797.057C909.373 797.058 912.171 797.063 915.553 797.063H957.592C957.596 815.634 973.028 830.688 992.064 830.688C995.158 830.688 997.95 833.018 997.95 836.112V872.926C997.95 876.346 995.383 879.252 991.966 879.388C990.883 879.431 989.795 879.453 988.701 879.453C944.588 879.453 908.827 844.069 908.827 800.42C908.827 799.293 908.851 798.172 908.898 797.057Z" fill="#9DA3AF"/>
<path d="M1132.86 351.908L1165.52 415.585C1165.72 415.973 1165.93 416.356 1166.14 416.731L1157.14 421.304C1156.93 420.937 1156.74 420.566 1156.54 420.19L1123.88 356.513C1113.77 336.794 1121.56 312.61 1141.27 302.496C1160.99 292.383 1185.18 300.169 1195.29 319.887L1227.95 383.564C1237.4 401.983 1231.23 424.297 1214.3 435.402C1214.3 435.402 1210.32 436.704 1208.15 433.845C1205.25 430.037 1209.7 426.331 1209.7 426.331C1221.65 417.823 1225.87 401.61 1218.97 388.169L1186.31 324.492C1178.74 309.731 1160.64 303.903 1145.88 311.474C1131.12 319.045 1125.29 337.148 1132.86 351.908Z" fill="#2651E7"/>
<path d="M1121.94 359.857C1122.37 359.853 1122.8 359.851 1123.23 359.851C1129.14 359.851 1134.96 360.228 1140.67 360.957L1151.66 314.96C1142.4 313.517 1132.9 312.768 1123.23 312.768C1120.82 312.768 1118.43 312.814 1116.05 312.905V337L1121.94 359.857Z" fill="#BBC9F6"/>
<defs>
<filter id="filter0_d_420_213" x="1498.55" y="174.563" width="558.792" height="326.05" filterUnits="userSpaceOnUse" color-interpolation-filters="sRGB">
<feFlood flood-opacity="0" result="BackgroundImageFix"/>
<feColorMatrix in="SourceAlpha" type="matrix" values="0 0 0 0 0 0 0 0 0 0 0 0 0 0 0 0 0 0 127 0" result="hardAlpha"/>
<feOffset dy="8"/>
<feGaussianBlur stdDeviation="5"/>
<feComposite in2="hardAlpha" operator="out"/>
<feColorMatrix type="matrix" values="0 0 0 0 0.164706 0 0 0 0 0.164706 0 0 0 0 0.164706 0 0 0 0.15 0"/>
<feBlend mode="normal" in2="BackgroundImageFix" result="effect1_dropShadow_420_213"/>
<feBlend mode="normal" in="SourceGraphic" in2="effect1_dropShadow_420_213" result="shape"/>
</filter>
<filter id="filter1_d_420_213" x="179.12" y="267.05" width="433.665" height="547.107" filterUnits="userSpaceOnUse" color-interpolation-filters="sRGB">
<feFlood flood-opacity="0" result="BackgroundImageFix"/>
<feColorMatrix in="SourceAlpha" type="matrix" values="0 0 0 0 0 0 0 0 0 0 0 0 0 0 0 0 0 0 127 0" result="hardAlpha"/>
<feOffset dy="8"/>
<feGaussianBlur stdDeviation="5"/>
<feComposite in2="hardAlpha" operator="out"/>
<feColorMatrix type="matrix" values="0 0 0 0 0.164706 0 0 0 0 0.164706 0 0 0 0 0.164706 0 0 0 0.15 0"/>
<feBlend mode="normal" in2="BackgroundImageFix" result="effect1_dropShadow_420_213"/>
<feBlend mode="normal" in="SourceGraphic" in2="effect1_dropShadow_420_213" result="shape"/>
</filter>
<filter id="filter2_d_420_213" x="1082.76" y="348.41" width="350.676" height="368.167" filterUnits="userSpaceOnUse" color-interpolation-filters="sRGB">
<feFlood flood-opacity="0" result="BackgroundImageFix"/>
<feColorMatrix in="SourceAlpha" type="matrix" values="0 0 0 0 0 0 0 0 0 0 0 0 0 0 0 0 0 0 127 0" result="hardAlpha"/>
<feOffset dy="8"/>
<feGaussianBlur stdDeviation="5"/>
<feComposite in2="hardAlpha" operator="out"/>
<feColorMatrix type="matrix" values="0 0 0 0 0 0 0 0 0 0 0 0 0 0 0 0 0 0 0.07 0"/>
<feBlend mode="normal" in2="BackgroundImageFix" result="effect1_dropShadow_420_213"/>
<feBlend mode="normal" in="SourceGraphic" in2="effect1_dropShadow_420_213" result="shape"/>
</filter>
<linearGradient id="paint0_linear_420_213" x1="929.432" y1="622.176" x2="1147.58" y2="782.619" gradientUnits="userSpaceOnUse">
<stop stop-color="#839DF0"/>
<stop offset="1" stop-color="#5C7DEC"/>
</linearGradient>
</defs>
</svg>
