<svg width="2099" height="1200" viewBox="0 0 2099 1200" fill="none" xmlns="http://www.w3.org/2000/svg">
<path fill-rule="evenodd" clip-rule="evenodd" d="M138.899 930.185H337.183V981.567C337.183 1051.89 394.191 1108.9 464.514 1108.9H659.421C729.744 1108.9 786.753 1051.89 786.753 981.567V923.188C836.578 905.91 872.35 858.56 872.35 802.854V652.481C872.35 605.706 847.128 564.821 809.543 542.685C821.644 542.73 833.824 541.049 845.712 537.575L874.686 529.11V981.567C874.686 1051.89 931.694 1108.9 1002.02 1108.9H1197.5C1267.83 1108.9 1324.83 1051.89 1324.83 981.567V966.725C1340.76 987.925 1359.51 1007.65 1381.15 1025.66L1381.36 1025.82L1381.58 1026.01C1463.85 1093.87 1567.89 1120.47 1678.91 1120.47C1789.42 1120.47 1893.33 1093.9 1974.83 1025.25C2058.99 954.704 2098.31 857.853 2098.31 749.645C2098.31 680.675 2080.57 614.383 2040.54 556.506C2037.19 551.631 2033.74 546.862 2030.19 542.197L2030.41 541.862C2065.47 488.064 2081.54 427.462 2081.54 364.458C2081.54 258.965 2043.95 163.763 1962.21 94.0618C1883.19 26.6804 1783.31 0 1677.17 0C1571.46 0 1472.11 26.8481 1393.28 94.0618C1365.42 117.818 1342.69 144.536 1324.83 173.614V139.477C1324.83 69.1537 1267.83 12.1455 1197.5 12.1455H1179.57C1165.41 12.1455 1151.34 14.5092 1137.95 19.1393L786.753 140.604V139.477C786.753 69.1537 729.744 12.1455 659.421 12.1455H464.514C413.327 12.1455 369.194 42.3495 348.966 85.9073L19.1867 616.496C4.42722 640.243 -2.10579 668.188 0.596052 696.016L12.1632 815.158C18.4982 880.409 73.3414 930.185 138.899 930.185Z" fill="#E1E9FA"/>
<rect x="550.783" y="992.001" width="866.149" height="115.487" transform="rotate(-90 550.783 992.001)" fill="#D8E0F0"/>
<g style="mix-blend-mode:multiply" filter="url(#filter0_d_420_257)">
<rect x="247.258" y="809.887" width="146.579" height="469.349" transform="rotate(-90 247.258 809.887)" fill="white"/>
</g>
<g style="mix-blend-mode:multiply" filter="url(#filter1_d_420_257)">
<circle cx="1680.48" cy="746.221" r="53.3015" transform="rotate(-180 1680.48 746.221)" fill="white"/>
</g>
<path d="M993.484 395.318L928.338 428.84V464.648H953.508V959.167C953.508 977.157 968.092 991.74 986.081 991.74C988.628 991.74 991.106 991.448 993.484 990.895V395.318Z" fill="#EBF1FC"/>
<path fill-rule="evenodd" clip-rule="evenodd" d="M1305.45 644.208C1305.45 498.718 1423.39 380.774 1568.88 380.774H1671.79C1674.61 380.774 1676.9 383.062 1676.9 385.884C1676.9 388.706 1674.61 390.993 1671.79 390.993H1568.88C1429.03 390.993 1315.67 504.362 1315.67 644.208C1315.67 784.055 1429.03 897.423 1568.88 897.423H1747.74C1825.65 897.423 1888.81 960.582 1888.81 1038.49C1888.81 1116.4 1825.65 1179.56 1747.74 1179.56H519.463C516.641 1179.56 514.354 1177.27 514.354 1174.45C514.354 1171.63 516.641 1169.34 519.463 1169.34H1747.74C1820.01 1169.34 1878.59 1110.76 1878.59 1038.49C1878.59 966.226 1820.01 907.642 1747.74 907.642H1568.88C1423.39 907.642 1305.45 789.698 1305.45 644.208Z" fill="#2651E7"/>
<circle cx="519.466" cy="1174.45" r="25.5476" fill="#2651E7"/>
<path d="M1672.51 115.079L1699.45 287.045L1808.77 151.588L1746.12 313.985L1908.51 251.333L1773.06 360.646L1945.02 387.587L1773.06 414.527L1908.51 523.84L1746.12 461.188L1808.77 623.585L1699.45 488.128L1672.51 660.094L1645.57 488.128L1536.26 623.585L1598.91 461.188L1436.51 523.84L1571.97 414.527L1400.01 387.587L1571.97 360.646L1436.51 251.333L1598.91 313.985L1536.26 151.588L1645.57 287.045L1672.51 115.079Z" fill="#A9BBF4"/>
<path d="M1672.51 213.864L1689.69 323.492L1759.38 237.139L1719.44 340.667L1822.96 300.726L1736.61 370.413L1846.24 387.588L1736.61 404.762L1822.96 474.449L1719.44 434.509L1759.38 538.037L1689.69 451.683L1672.51 561.311L1655.34 451.683L1585.65 538.037L1625.59 434.509L1522.07 474.449L1608.42 404.762L1498.79 387.588L1608.42 370.413L1522.07 300.726L1625.59 340.667L1585.65 237.139L1655.34 323.492L1672.51 213.864Z" fill="#FBFCFE"/>
<defs>
<filter id="filter0_d_420_257" x="237.258" y="661.308" width="489.35" height="166.579" filterUnits="userSpaceOnUse" color-interpolation-filters="sRGB">
<feFlood flood-opacity="0" result="BackgroundImageFix"/>
<feColorMatrix in="SourceAlpha" type="matrix" values="0 0 0 0 0 0 0 0 0 0 0 0 0 0 0 0 0 0 127 0" result="hardAlpha"/>
<feOffset dy="8"/>
<feGaussianBlur stdDeviation="5"/>
<feComposite in2="hardAlpha" operator="out"/>
<feColorMatrix type="matrix" values="0 0 0 0 0.164706 0 0 0 0 0.164706 0 0 0 0 0.164706 0 0 0 0.15 0"/>
<feBlend mode="normal" in2="BackgroundImageFix" result="effect1_dropShadow_420_257"/>
<feBlend mode="normal" in="SourceGraphic" in2="effect1_dropShadow_420_257" result="shape"/>
</filter>
<filter id="filter1_d_420_257" x="1617.18" y="690.92" width="126.604" height="126.603" filterUnits="userSpaceOnUse" color-interpolation-filters="sRGB">
<feFlood flood-opacity="0" result="BackgroundImageFix"/>
<feColorMatrix in="SourceAlpha" type="matrix" values="0 0 0 0 0 0 0 0 0 0 0 0 0 0 0 0 0 0 127 0" result="hardAlpha"/>
<feOffset dy="8"/>
<feGaussianBlur stdDeviation="5"/>
<feComposite in2="hardAlpha" operator="out"/>
<feColorMatrix type="matrix" values="0 0 0 0 0.164706 0 0 0 0 0.164706 0 0 0 0 0.164706 0 0 0 0.15 0"/>
<feBlend mode="normal" in2="BackgroundImageFix" result="effect1_dropShadow_420_257"/>
<feBlend mode="normal" in="SourceGraphic" in2="effect1_dropShadow_420_257" result="shape"/>
</filter>
</defs>
</svg>
