<svg width="2235" height="1200" viewBox="0 0 2235 1200" fill="none" xmlns="http://www.w3.org/2000/svg">
<path d="M18.3273 593.71C13.9522 630.284 24.5185 665.505 45.4934 692.894C17.843 717.638 0.335925 753.5 0.013386 793.496C-0.617422 871.716 21.0442 945.315 65.5056 1010.05C65.6279 1010.22 65.7505 1010.4 65.8736 1010.58C109.044 1072.79 167.351 1119.52 235.94 1152.1C236.11 1152.18 236.279 1152.26 236.449 1152.34C236.56 1152.39 236.671 1152.44 236.782 1152.49C305.058 1184.36 377.921 1200 453.752 1200C535.517 1200 613.827 1183.72 684.034 1145.82C725.005 1123.7 760.904 1095.69 791.295 1062.28C875.766 1157.35 991.018 1200 1119.57 1200C1250.19 1200 1367.03 1155.61 1451.5 1056.56C1536.4 1155.64 1653.66 1200 1784.76 1200C1917.62 1200 2036.23 1154.08 2121.02 1051.42C2203.25 952.364 2234.79 822.971 2234.79 682.424V518.195C2234.79 377.76 2203.12 248.587 2121.11 149.321C2035.97 46.2549 1916.98 0 1783.52 0C1652.67 0 1535.58 44.2554 1450.67 143.09C1365.92 44.3888 1249.07 0 1118.33 0C1019.8 0 929.061 25.0944 853.998 79.6915C830.278 39.4191 786.47 12.3946 736.35 12.3946H208.958C139.872 12.3946 81.6892 64.0325 73.4835 132.629L18.3273 593.71Z" fill="#E1E9FA"/>
<path d="M748.604 736.146V778.892C748.604 791.531 748.604 797.85 748.419 803.193C742.803 965.208 612.765 1095.25 450.75 1100.86C445.533 1101.04 439.386 1101.05 427.334 1101.05L427.334 736.146L748.604 736.146Z" fill="#EBF1FC"/>
<g style="mix-blend-mode:multiply" filter="url(#filter0_d_420_270)">
<path d="M681.269 736.144V769.97C681.269 779.971 681.269 784.972 681.123 789.2C676.679 917.403 573.779 1020.3 445.575 1024.75C441.347 1024.89 436.346 1024.89 426.345 1024.89C416.344 1024.89 411.343 1024.89 407.116 1024.75C285.225 1020.52 186.207 927.299 172.932 807.946L343.79 807.946C344.904 852.584 381.439 888.428 426.345 888.428C471.953 888.428 508.926 851.455 508.926 805.847V736.144L681.269 736.144Z" fill="white"/>
</g>
<path d="M681.269 736.148V702.322C681.269 692.32 681.269 687.32 681.123 683.092C676.679 554.888 573.779 451.988 445.575 447.544C441.347 447.397 436.346 447.397 426.345 447.397C416.344 447.397 411.343 447.397 407.116 447.544C285.225 451.769 186.207 544.993 172.932 664.346H343.79C344.904 619.708 381.439 583.864 426.345 583.864C471.953 583.864 508.926 620.837 508.926 666.445V736.148H681.269Z" fill="#EBF1FC"/>
<g style="mix-blend-mode:multiply" filter="url(#filter1_d_420_270)">
<rect x="172.932" y="136.439" width="171.344" height="528.309" fill="white"/>
</g>
<path d="M1632.52 467.951C1632.52 388.256 1697.16 323.65 1776.9 323.65C1856.63 323.65 1921.27 388.256 1921.27 467.951V731.457C1921.27 811.152 1856.63 875.757 1776.9 875.757C1697.16 875.757 1632.52 811.152 1632.52 731.457V467.951Z" fill="#EBF1FC"/>
<path d="M1288.25 1009.82C1288.25 1026.03 1207.28 1039.17 1107.39 1039.17C1007.5 1039.17 926.525 1026.03 926.525 1009.82C926.525 993.606 1007.5 980.466 1107.39 980.466C1207.28 980.466 1288.25 993.606 1288.25 1009.82Z" fill="#CFD7E6"/>
<path d="M1016.96 985.225L1016.96 786.91L1091.52 786.91L1091.52 985.225L1016.96 985.225Z" fill="#9DA3AF"/>
<path d="M974.119 985.225C974.119 971.206 985.484 959.841 999.503 959.841H1085.18C1088.68 959.841 1091.52 962.682 1091.52 966.187V997.917C1091.52 1001.42 1088.68 1004.26 1085.18 1004.26H980.465C976.96 1004.26 974.119 1001.42 974.119 997.917V985.225Z" fill="#818997"/>
<path fill-rule="evenodd" clip-rule="evenodd" d="M1154 687.966L1096.13 807.104L1096.02 807.049C1088.81 820.555 1074.58 829.746 1058.2 829.746C1034.55 829.746 1015.37 810.568 1015.37 786.911C1015.37 780.765 1016.66 774.922 1018.99 769.639L1018.29 769.299L1104.44 591.925L1104.53 591.968L1104.35 590.244L1213.17 579.077L1213.17 579.079L1284.34 776.558L1397.4 793.198L1387.11 863.117L1247.42 842.558C1235.98 842.994 1224.39 838.921 1215.55 830.301C1208.64 823.556 1204.46 815.061 1203.04 806.203L1160.19 687.33L1154 687.966Z" fill="url(#paint0_linear_420_270)"/>
<path d="M1405.65 907.485C1391.63 907.485 1380.27 896.12 1380.27 882.101L1380.27 796.429C1380.27 792.924 1383.11 790.083 1386.61 790.083L1423.1 790.083C1426.61 790.083 1429.45 792.924 1429.45 796.429L1429.45 901.139C1429.45 904.644 1426.61 907.485 1423.1 907.485L1405.65 907.485Z" fill="#818997"/>
<path fill-rule="evenodd" clip-rule="evenodd" d="M1047.1 154.849C1047.1 154.32 1046.67 153.891 1046.14 153.899C1010.66 154.412 982.053 183.335 982.053 218.939V222.112V223.028C982.053 226.027 979.622 228.458 976.623 228.458H972.534C969.029 228.458 966.188 231.299 966.188 234.804V241.15C966.188 242.902 967.608 244.323 969.361 244.323H982.053H1040.75C1044.26 244.323 1047.1 241.482 1047.1 237.977V154.849ZM1062.72 153.892C1060.22 153.892 1058.21 155.919 1058.21 158.423V237.977C1058.21 241.482 1061.05 244.323 1064.55 244.323H1143.88H1158.16H1159.74C1163.25 244.323 1166.09 241.482 1166.09 237.977V234.804C1166.09 231.299 1163.25 228.458 1159.74 228.458H1149.9C1146.5 228.458 1143.73 225.765 1143.32 222.386C1138.81 184.659 1107.43 155.277 1068.85 153.938C1067.5 153.892 1065.91 153.892 1062.72 153.892Z" fill="#818997"/>
<path d="M892.186 555.411C891.139 552.066 893.003 548.506 896.348 547.46L1006.05 513.143C1009.4 512.097 1012.96 513.961 1014 517.306L1027.45 560.289C1028.5 563.634 1026.63 567.194 1023.29 568.24L913.582 602.557C910.237 603.603 906.677 601.74 905.631 598.395L892.186 555.411Z" fill="#818997"/>
<path fill-rule="evenodd" clip-rule="evenodd" d="M985.715 535.158L985.567 535.964C985.564 535.984 985.577 536.003 985.597 536.007V536.007C985.616 536.011 985.629 536.028 985.628 536.047C985.552 536.95 985.516 537.865 985.52 538.789C985.608 555.656 999.352 569.258 1016.22 569.171C1032.81 569.085 1046.24 555.789 1046.59 539.304C1046.6 538.927 1046.64 538.549 1046.7 538.178L1071.03 405.448C1071.66 402.001 1069.38 398.694 1065.93 398.062L1018.87 389.439C1015.42 388.807 1012.12 391.089 1011.48 394.537L986.467 531.053C986.126 532.388 985.873 533.759 985.715 535.158Z" fill="#9DA3AF"/>
<path fill-rule="evenodd" clip-rule="evenodd" d="M1178.02 420.241L1222.96 575.181C1223.93 578.529 1222.02 582.034 1218.68 583.03L1094.23 620.158C1090.95 621.137 1087.48 619.337 1086.4 616.09L1012.03 393.75C1010.88 390.33 1012.81 386.646 1016.28 385.642L1150.11 346.822C1150.96 346.575 1151.82 346.515 1152.65 346.616C1154.99 345.589 1157.49 344.816 1160.11 344.338C1169.5 342.629 1178.69 345.037 1185.82 350.278L1290.54 400.74L1261.71 460.571L1178.02 420.241Z" fill="url(#paint1_linear_420_270)"/>
<path fill-rule="evenodd" clip-rule="evenodd" d="M1252.13 452.646C1248.43 448.32 1245.8 442.989 1244.7 436.988C1241.41 418.885 1253.41 401.539 1271.52 398.244C1287.88 395.266 1303.62 404.781 1308.93 420.001L1361.09 520.679C1362.7 523.791 1361.49 527.621 1358.37 529.233L1311.53 553.503C1308.42 555.115 1304.59 553.899 1302.98 550.787L1252.13 452.646Z" fill="#818997"/>
<path fill-rule="evenodd" clip-rule="evenodd" d="M1325.63 616.236C1325.23 619.837 1328.57 622.46 1332.16 621.961L1384.91 614.628C1388.5 614.129 1390.99 610.696 1389.63 607.339C1384.04 593.52 1369.6 584.72 1354.16 586.866C1338.73 589.012 1327.24 601.416 1325.63 616.236ZM1312.76 618.497C1312.66 621.917 1310.3 624.999 1306.91 625.47L1273.68 630.09C1270.21 630.573 1267.78 633.778 1268.27 637.25L1283.34 745.677C1283.82 749.148 1287.03 751.571 1290.5 751.089L1460.21 727.497C1463.68 727.014 1466.1 723.809 1465.62 720.337L1450.55 611.91C1450.07 608.439 1446.86 606.016 1443.39 606.498L1410.15 611.119C1406.77 611.59 1403.66 609.267 1402.63 606.004C1396.01 584.965 1374.99 571.157 1352.42 574.295C1329.84 577.433 1313.39 596.451 1312.76 618.497Z" fill="url(#paint2_linear_420_270)"/>
<circle cx="1348.54" cy="575.904" r="31.7303" fill="#A9BBF4"/>
<path d="M1349.24 648.944C1348.84 646.233 1350.72 643.71 1353.43 643.311L1370.61 640.778C1373.32 640.378 1375.85 642.252 1376.25 644.964L1385.65 708.791C1386.05 711.503 1384.18 714.025 1381.47 714.425L1364.28 716.958C1361.57 717.357 1359.05 715.483 1358.65 712.772L1349.24 648.944Z" fill="#FBFCFE"/>
<path d="M1396.14 660.843C1398.86 660.443 1401.38 662.318 1401.78 665.029L1404.31 682.213C1404.71 684.925 1402.84 687.447 1400.12 687.847L1337.52 697.074C1334.81 697.474 1332.29 695.6 1331.89 692.888L1329.36 675.704C1328.96 672.992 1330.83 670.47 1333.54 670.07L1396.14 660.843Z" fill="#FBFCFE"/>
<path fill-rule="evenodd" clip-rule="evenodd" d="M1357.42 500.149C1358.95 503.301 1357.64 507.099 1354.48 508.631L1297.37 536.395C1294.22 537.927 1290.42 536.614 1288.89 533.462C1287.36 530.31 1288.67 526.513 1291.82 524.98L1348.94 497.216C1352.09 495.684 1355.89 496.997 1357.42 500.149Z" fill="url(#paint3_linear_420_270)"/>
<path fill-rule="evenodd" clip-rule="evenodd" d="M914.287 536.542C917.627 535.479 921.196 537.325 922.258 540.665L938.917 593.02C939.979 596.36 938.133 599.929 934.794 600.991C931.454 602.054 927.885 600.208 926.822 596.868L910.164 544.513C909.101 541.173 910.947 537.604 914.287 536.542Z" fill="url(#paint4_linear_420_270)"/>
<path fill-rule="evenodd" clip-rule="evenodd" d="M888.489 561.131C887.563 558.239 885.106 556 882.069 556V556C866.567 556 854 568.567 854 584.069C854 599.572 866.567 612.139 882.069 612.139C887.766 612.139 893.066 610.442 897.492 607.526C900.588 605.487 901.425 601.491 900.294 597.961L888.489 561.131Z" fill="#A9BBF4"/>
<path fill-rule="evenodd" clip-rule="evenodd" d="M1194.07 474.898C1197.43 473.899 1199.34 470.367 1198.35 467.007C1197.35 463.647 1193.82 461.733 1190.46 462.731L1051.64 503.981C1048.28 504.979 1046.36 508.512 1047.36 511.871C1048.36 515.231 1051.89 517.145 1055.25 516.147L1139.53 491.104L1164.44 568.587L1080.19 593.619C1076.83 594.617 1074.92 598.15 1075.92 601.509C1076.92 604.869 1080.45 606.783 1083.81 605.785L1222.63 564.536C1225.99 563.537 1227.9 560.005 1226.9 556.645C1225.91 553.285 1222.37 551.371 1219.01 552.369L1176.61 564.971L1151.7 487.488L1194.07 474.898Z" fill="url(#paint5_linear_420_270)"/>
<defs>
<filter id="filter0_d_420_270" x="162.932" y="734.144" width="528.338" height="308.751" filterUnits="userSpaceOnUse" color-interpolation-filters="sRGB">
<feFlood flood-opacity="0" result="BackgroundImageFix"/>
<feColorMatrix in="SourceAlpha" type="matrix" values="0 0 0 0 0 0 0 0 0 0 0 0 0 0 0 0 0 0 127 0" result="hardAlpha"/>
<feOffset dy="8"/>
<feGaussianBlur stdDeviation="5"/>
<feComposite in2="hardAlpha" operator="out"/>
<feColorMatrix type="matrix" values="0 0 0 0 0.164706 0 0 0 0 0.164706 0 0 0 0 0.164706 0 0 0 0.15 0"/>
<feBlend mode="normal" in2="BackgroundImageFix" result="effect1_dropShadow_420_270"/>
<feBlend mode="normal" in="SourceGraphic" in2="effect1_dropShadow_420_270" result="shape"/>
</filter>
<filter id="filter1_d_420_270" x="162.932" y="134.439" width="191.344" height="548.31" filterUnits="userSpaceOnUse" color-interpolation-filters="sRGB">
<feFlood flood-opacity="0" result="BackgroundImageFix"/>
<feColorMatrix in="SourceAlpha" type="matrix" values="0 0 0 0 0 0 0 0 0 0 0 0 0 0 0 0 0 0 127 0" result="hardAlpha"/>
<feOffset dy="8"/>
<feGaussianBlur stdDeviation="5"/>
<feComposite in2="hardAlpha" operator="out"/>
<feColorMatrix type="matrix" values="0 0 0 0 0.164706 0 0 0 0 0.164706 0 0 0 0 0.164706 0 0 0 0.15 0"/>
<feBlend mode="normal" in2="BackgroundImageFix" result="effect1_dropShadow_420_270"/>
<feBlend mode="normal" in="SourceGraphic" in2="effect1_dropShadow_420_270" result="shape"/>
</filter>
<linearGradient id="paint0_linear_420_270" x1="1098.35" y1="540.648" x2="1314.97" y2="884.661" gradientUnits="userSpaceOnUse">
<stop stop-color="#CFD7E6"/>
<stop offset="1" stop-color="#9DA3AF"/>
</linearGradient>
<linearGradient id="paint1_linear_420_270" x1="977.29" y1="414.874" x2="1155.16" y2="364.774" gradientUnits="userSpaceOnUse">
<stop stop-color="#CFD7E6"/>
<stop offset="1" stop-color="#9DA3AF"/>
</linearGradient>
<linearGradient id="paint2_linear_420_270" x1="1268.66" y1="585.938" x2="1414.15" y2="586.482" gradientUnits="userSpaceOnUse">
<stop stop-color="#839DF0"/>
<stop offset="1" stop-color="#5C7DEC"/>
</linearGradient>
<linearGradient id="paint3_linear_420_270" x1="1242.43" y1="471.318" x2="1232.16" y2="513.643" gradientUnits="userSpaceOnUse">
<stop stop-color="#E2E7F8"/>
<stop offset="0.928068" stop-color="#AFB6C3"/>
</linearGradient>
<linearGradient id="paint4_linear_420_270" x1="890.597" y1="495.631" x2="854.668" y2="534.351" gradientUnits="userSpaceOnUse">
<stop stop-color="#E2E7F8"/>
<stop offset="0.928068" stop-color="#AFB6C3"/>
</linearGradient>
<linearGradient id="paint5_linear_420_270" x1="928.901" y1="372.83" x2="837.716" y2="587.412" gradientUnits="userSpaceOnUse">
<stop stop-color="#E2E7F8"/>
<stop offset="0.928068" stop-color="#AFB6C3"/>
</linearGradient>
</defs>
</svg>
